<svg viewBox="0 0 40 26" xmlns="http://www.w3.org/2000/svg"><path d="m2.39 14.92s2.48.3 2.48-2-2.48-2-2.48-2zm-1.19-4.92h2a3 3 0 0 1 0 5.95h-2z"/><path d="m7.75 10h-1.2v6h1.2z"/><path d="m11.51 11.35a1.33 1.33 0 0 0 -.89-.5.78.78 0 0 0 -.79.6c0 .29 0 .39.79.69s1.89.5 1.89 1.88a2 2 0 0 1 -2 2 2.64 2.64 0 0 1 -2.18-1.09l.79-.8a1.74 1.74 0 0 0 1.29.8.8.8 0 0 0 .9-.8c0-.29-.2-.59-.7-.79s-1.88-.4-1.88-1.69a1.74 1.74 0 0 1 1.88-1.78 3 3 0 0 1 1.69.69z" fill-rule="evenodd"/><path d="m17.27 11.64a2.15 2.15 0 0 0 -1.49-.64 2.09 2.09 0 0 0 0 4.17 2.12 2.12 0 0 0 1.49-.7v1.39a3.31 3.31 0 0 1 -1.49.4 3.18 3.18 0 0 1 0-6.35 2.79 2.79 0 0 1 1.49.4z" fill-rule="evenodd"/><path d="m23.81 10h1.29l1.69 4 1.59-4h1.29l-2.58 6.15h-.7z"/><path d="m35.32 11v1.79h.68a.86.86 0 0 0 .8-.8v-.1a.79.79 0 0 0 -.8-.79h-.69zm-1.09-1h2a1.76 1.76 0 0 1 1.89 1.78 1.72 1.72 0 0 1 -1.29 1.69l1.78 2.48h-1.5l-1.59-2.38h-.1v2.38h-1.19z"/><path d="m33.34 12.34v1.09h-2.09v1.49h2.18v1.08h-3.37v-6h3.37v1.09h-2.18v1.29z"/><path d="m20.94 16.11a3.08 3.08 0 1 0 -3.08-3.11 3.07 3.07 0 0 0 3.08 3.11z" fill="#f16822"/></svg>