<svg viewBox="0 0 40 26" xmlns="http://www.w3.org/2000/svg"><path d="m16.2 22.17.36-2.2h-4.63l2.66-16.22a.22.22 0 0 1 .08-.13.22.22 0 0 1 .14-.05h6.45c2.14 0 3.62.43 4.39 1.27a2.89 2.89 0 0 1 .71 1.27 4.44 4.44 0 0 1 0 1.75v.5l.37.19a2.77 2.77 0 0 1 .73.54 2.41 2.41 0 0 1 .54 1.28 5.21 5.21 0 0 1 0 1.86 6.27 6.27 0 0 1 -.8 2.11 4.25 4.25 0 0 1 -1.25 1.32 5.18 5.18 0 0 1 -1.69.73 8.56 8.56 0 0 1 -2.11.24h-.55a1.58 1.58 0 0 0 -1 .34 1.5 1.5 0 0 0 -.51.88v.2l-.63 3.87v.14a.15.15 0 0 1 0 .09h-.07z" fill="#253b80"/><path d="m27.06 8c0 .12 0 .24-.07.36-.85 4.2-3.76 5.66-7.48 5.66h-1.89a.9.9 0 0 0 -.91.74l-1 5.91-.27 1.68a.35.35 0 0 0 0 .2.42.42 0 0 0 .1.17.38.38 0 0 0 .16.12.46.46 0 0 0 .2.05h3.4a.8.8 0 0 0 .8-.66v-.16l.63-3.86v-.21a.8.8 0 0 1 .79-.66h.51c3.25 0 5.8-1.27 6.54-4.94a4.09 4.09 0 0 0 -.57-3.76 3.1 3.1 0 0 0 -.94-.64z" fill="#179bd7"/><path d="m26.17 7.62a7.65 7.65 0 0 0 -.83-.18 10.34 10.34 0 0 0 -1.67-.11h-5.06a.8.8 0 0 0 -.52.18.76.76 0 0 0 -.27.47l-1.08 6.55v.19a.86.86 0 0 1 .31-.53.93.93 0 0 1 .6-.21h1.89c3.72 0 6.63-1.46 7.48-5.66 0-.12.05-.24.07-.36a4.65 4.65 0 0 0 -.7-.28z" fill="#222d65"/><path d="m17.82 8a.76.76 0 0 1 .27-.47.8.8 0 0 1 .52-.18h5.06a10.89 10.89 0 0 1 1.67.11 6.88 6.88 0 0 1 1 .24 4.86 4.86 0 0 1 .7.28 3.83 3.83 0 0 0 -.88-3.56c-1-1.06-2.7-1.51-4.92-1.51h-6.43a.91.91 0 0 0 -.91.75l-2.69 16.34a.55.55 0 0 0 0 .22.45.45 0 0 0 .12.21.59.59 0 0 0 .18.13.52.52 0 0 0 .24.05h4l1-6.1z" fill="#253b80"/></svg>