<svg width="341" height="341" viewBox="0 0 341 341" fill="none" xmlns="http://www.w3.org/2000/svg">
<g clip-path="url(#clip0_2456_6813)">
<path d="M326.974 0.614746L176.663 9.78889C170.467 9.78889 163.676 5.62592 163.105 11.8048L135.776 305.84C135.201 312.019 142.099 310.245 148.294 310.245L297.554 317.03C303.749 317.03 309.238 312.019 309.813 305.84L337.151 11.8007C337.714 5.62592 333.17 0.614746 326.974 0.614746Z" fill="black"/>
<path d="M297.554 317.645L148.266 310.855C147.152 310.855 145.969 310.921 144.827 310.978C141.261 311.167 137.892 311.343 136.199 309.585C135.349 308.7 135.012 307.459 135.168 305.783L162.505 11.7475C162.645 10.2396 163.138 9.19069 164.013 8.5392C165.657 7.30997 168.179 7.83443 171.108 8.42446C172.936 8.85571 174.802 9.10685 176.679 9.17427L326.937 0.00013113H326.974C328.488 -0.0215629 329.99 0.275619 331.381 0.872235C332.772 1.46885 334.022 2.3515 335.047 3.46249C336.068 4.593 336.838 5.92536 337.307 7.3727C337.776 8.82003 337.935 10.3498 337.771 11.8622L310.425 305.898C309.826 312.376 304.049 317.645 297.554 317.645ZM148.315 309.63L297.603 316.416C303.449 316.416 308.675 311.646 309.222 305.783L336.559 11.7475C336.707 10.4055 336.569 9.04748 336.154 7.76238C335.739 6.47729 335.057 5.29408 334.152 4.29017C333.244 3.30816 332.139 2.52797 330.909 2.00058C329.678 1.47318 328.35 1.2104 327.011 1.22936L176.737 10.4035C174.769 10.3383 172.812 10.0789 170.895 9.62908C168.364 9.121 165.965 8.6416 164.777 9.52664C164.198 9.93639 163.869 10.719 163.763 11.8622L136.4 305.898C136.277 307.196 136.503 308.122 137.091 308.733C138.397 310.089 141.495 309.925 144.773 309.753C145.92 309.684 147.119 309.63 148.315 309.63Z" fill="black"/>
<path d="M321.16 0.614746H169.559C163.359 0.614746 157.871 5.62592 157.3 11.8048L129.962 305.84C129.387 312.019 133.947 317.03 140.143 317.03H291.744C297.939 317.03 303.428 312.019 304.003 305.84L331.337 11.8007C331.912 5.62592 327.356 0.614746 321.16 0.614746Z" fill="#01A9BE"/>
<path d="M291.74 317.645H140.139C138.627 317.667 137.127 317.371 135.737 316.776C134.347 316.18 133.099 315.3 132.074 314.191C131.053 313.061 130.282 311.728 129.813 310.281C129.344 308.833 129.186 307.304 129.35 305.791L156.688 11.7558C157.292 5.27773 163.064 0.0084257 169.563 0.0084257H321.165C322.678 -0.0132061 324.179 0.284 325.57 0.880629C326.96 1.47726 328.209 2.35991 329.234 3.47078C330.254 4.6013 331.024 5.93366 331.493 7.38099C331.963 8.82832 332.121 10.3581 331.957 11.8705L304.612 305.898C304.024 312.376 298.235 317.645 291.74 317.645ZM169.563 1.22945C163.684 1.22945 158.471 5.99885 157.916 11.8828L130.579 305.898C130.431 307.24 130.569 308.598 130.984 309.883C131.399 311.168 132.081 312.351 132.986 313.355C133.896 314.339 135.003 315.12 136.237 315.648C137.47 316.175 138.801 316.437 140.143 316.416H291.744C297.619 316.416 302.837 311.646 303.392 305.783L330.729 11.7476C330.877 10.4056 330.739 9.04757 330.324 7.76247C329.909 6.47738 329.227 5.29417 328.322 4.29027C327.412 3.30638 326.304 2.52512 325.071 1.99767C323.837 1.47022 322.506 1.20844 321.165 1.22945H169.563Z" fill="black"/>
<path d="M201.391 0.614941L200.808 6.88402C200.187 13.5546 205.105 18.9591 211.79 18.9591H275.52C282.204 18.9591 288.128 13.5546 288.749 6.88402L289.332 0.61084L201.391 0.614941Z" fill="black"/>
<path d="M244.181 13.2964C243.618 13.3065 243.06 13.1966 242.543 12.974C242.027 12.7514 241.564 12.4212 241.186 12.0057C240.808 11.5901 240.523 11.0988 240.351 10.5645C240.178 10.0303 240.123 9.46548 240.187 8.90801C240.316 7.71783 240.876 6.61545 241.761 5.80753C242.647 4.99962 243.798 4.5417 244.998 4.51968C245.561 4.50956 246.119 4.61949 246.635 4.8421C247.152 5.0647 247.615 5.39483 247.993 5.81038C248.371 6.22593 248.656 6.71729 248.828 7.25153C249 7.78578 249.056 8.35054 248.991 8.90801C248.863 10.0982 248.303 11.2006 247.417 12.0085C246.531 12.8165 245.381 13.2744 244.181 13.2964Z" fill="#84D2D8"/>
<path d="M278.396 189.957H177.115C176.389 189.971 175.669 189.83 175.003 189.544C174.337 189.258 173.74 188.832 173.252 188.297C172.764 187.761 172.397 187.127 172.176 186.438C171.954 185.749 171.883 185.021 171.967 184.302L174.198 160.279C174.364 158.744 175.086 157.323 176.228 156.28C177.37 155.238 178.854 154.647 180.401 154.617H281.683C282.408 154.603 283.129 154.744 283.795 155.032C284.462 155.319 285.059 155.745 285.547 156.281C286.035 156.818 286.401 157.452 286.623 158.142C286.844 158.831 286.915 159.56 286.83 160.279L284.6 184.302C284.432 185.836 283.71 187.256 282.568 188.297C281.426 189.338 279.942 189.928 278.396 189.957Z" fill="white"/>
<path d="M273.996 237.282H172.715C171.989 237.296 171.269 237.156 170.602 236.869C169.936 236.582 169.338 236.157 168.851 235.62C168.363 235.084 167.996 234.45 167.774 233.761C167.553 233.071 167.482 232.343 167.567 231.624L169.798 207.604C169.964 206.07 170.686 204.648 171.828 203.606C172.97 202.563 174.454 201.972 176.002 201.942H277.283C278.009 201.928 278.729 202.07 279.396 202.357C280.062 202.644 280.659 203.07 281.147 203.606C281.635 204.143 282.001 204.777 282.223 205.467C282.444 206.156 282.515 206.885 282.43 207.604L280.196 231.624C280.029 233.157 279.307 234.578 278.166 235.62C277.025 236.661 275.542 237.252 273.996 237.282Z" fill="white"/>
<path d="M269.595 284.607H168.314C167.589 284.621 166.869 284.481 166.202 284.194C165.536 283.908 164.939 283.482 164.451 282.947C163.964 282.411 163.597 281.777 163.375 281.089C163.153 280.4 163.082 279.671 163.166 278.953L165.397 254.934C165.564 253.399 166.285 251.977 167.427 250.935C168.569 249.892 170.053 249.301 171.601 249.271H272.882C273.608 249.257 274.328 249.399 274.995 249.686C275.661 249.973 276.258 250.399 276.746 250.935C277.234 251.472 277.601 252.106 277.822 252.796C278.043 253.485 278.114 254.214 278.03 254.934L275.799 278.953C275.631 280.486 274.909 281.907 273.767 282.947C272.625 283.988 271.142 284.578 269.595 284.607Z" fill="white"/>
<path d="M270.641 125.046C291.945 104.764 294.188 72.623 275.651 53.2574C257.115 33.8917 224.818 34.6348 203.515 54.917C182.211 75.1992 179.968 107.34 198.505 126.706C217.041 146.071 249.338 145.328 270.641 125.046Z" fill="white"/>
<path d="M6.7666 274.315C11.479 264.641 11.9268 254.893 6.7666 245.047L10.4642 240.613L111.799 243.936L108.307 276.044L10.2136 277.171L6.7666 274.315Z" fill="white"/>
<path d="M10.222 277.785C10.0728 277.789 9.92701 277.74 9.81117 277.646L6.35597 274.778C6.24991 274.69 6.17648 274.569 6.14743 274.435C6.11838 274.3 6.13539 274.16 6.19574 274.036C11.0766 264.014 11.0807 254.622 6.19574 245.317C6.13944 245.21 6.11642 245.088 6.12959 244.968C6.14276 244.848 6.19153 244.734 6.2697 244.641L9.96729 240.208C10.0276 240.136 10.1032 240.079 10.1885 240.041C10.2739 240.003 10.3667 239.984 10.4603 239.987L111.795 243.314C111.88 243.316 111.963 243.336 112.04 243.372C112.117 243.408 112.186 243.459 112.243 243.523C112.298 243.587 112.339 243.662 112.364 243.743C112.389 243.824 112.396 243.91 112.386 243.994L108.894 276.097C108.879 276.247 108.809 276.386 108.698 276.487C108.586 276.588 108.441 276.645 108.29 276.646L10.2302 277.785H10.222ZM7.53098 274.151L10.4398 276.552L107.76 275.433L111.125 244.535L10.752 241.257L7.50223 245.145C12.2434 254.422 12.2516 264.178 7.53098 274.151Z" fill="black"/>
<path d="M192.974 237.081H4.88537C4.36276 237.081 3.84517 237.183 3.36219 237.382C2.87921 237.581 2.44031 237.873 2.07058 238.241C1.70085 238.61 1.40754 239.047 1.20742 239.529C1.0073 240.01 0.904297 240.526 0.904297 241.047C0.904297 242.1 1.32373 243.11 2.07033 243.855C2.81692 244.599 3.82952 245.018 4.88537 245.018H91.3556C94.3967 245.018 97.3133 246.223 99.4637 248.367C101.614 250.512 102.822 253.421 102.822 256.454V262.883C102.822 264.384 102.526 265.871 101.949 267.258C101.373 268.645 100.528 269.906 99.4635 270.967C98.3986 272.029 97.1345 272.871 95.7434 273.445C94.3522 274.02 92.8612 274.315 91.3556 274.314H4.88537C4.36257 274.314 3.84488 274.417 3.36188 274.617C2.87887 274.816 2.44 275.109 2.07033 275.477C1.70065 275.846 1.40741 276.284 1.20734 276.765C1.00727 277.247 0.904297 277.763 0.904297 278.285C0.904297 278.806 1.00727 279.322 1.20734 279.804C1.40741 280.286 1.70065 280.724 2.07033 281.092C2.44 281.461 2.87887 281.753 3.36188 281.953C3.84488 282.152 4.36257 282.255 4.88537 282.255H192.974C198.579 282.254 203.955 280.033 207.919 276.079C211.883 272.126 214.11 266.765 214.111 261.174V258.162C214.111 255.394 213.565 252.653 212.502 250.095C211.44 247.537 209.883 245.213 207.92 243.256C205.957 241.298 203.627 239.745 201.063 238.686C198.498 237.626 195.749 237.081 192.974 237.081Z" fill="white"/>
<path d="M192.973 282.87H4.88445C3.66549 282.869 2.49677 282.386 1.63484 281.526C0.772906 280.666 0.288197 279.501 0.287109 278.285C0.288197 277.069 0.772906 275.904 1.63484 275.044C2.49677 274.185 3.66549 273.701 4.88445 273.7H91.3546C94.231 273.698 96.9889 272.558 99.0232 270.53C101.057 268.502 102.202 265.752 102.205 262.883V256.454C102.202 253.585 101.058 250.834 99.0234 248.806C96.9893 246.777 94.2313 245.636 91.3546 245.633H4.88445C3.66549 245.632 2.49677 245.148 1.63484 244.289C0.772906 243.429 0.288197 242.263 0.287109 241.048C0.288198 239.832 0.773039 238.667 1.63509 237.808C2.49714 236.949 3.66587 236.467 4.88445 236.467H192.973C198.744 236.472 204.277 238.763 208.356 242.835C212.436 246.907 214.727 252.427 214.727 258.183V261.195C214.716 266.944 212.42 272.454 208.342 276.517C204.264 280.58 198.737 282.865 192.973 282.87ZM4.88445 274.929C3.99271 274.931 3.13812 275.286 2.50757 275.915C1.87701 276.543 1.52181 277.396 1.51964 278.285C1.52073 279.175 1.87558 280.028 2.50637 280.657C3.13716 281.286 3.99238 281.64 4.88445 281.641H192.973C198.414 281.635 203.63 279.477 207.478 275.64C211.325 271.803 213.489 266.601 213.494 261.174V258.163C213.494 252.733 211.333 247.525 207.485 243.683C203.637 239.842 198.417 237.681 192.973 237.676H4.88445C3.99309 237.677 3.13849 238.03 2.50782 238.658C1.87715 239.286 1.52181 240.138 1.51964 241.027C1.52073 241.917 1.87558 242.77 2.50637 243.399C3.13716 244.028 3.99238 244.382 4.88445 244.383H91.3546C94.5582 244.386 97.6297 245.657 99.895 247.916C102.16 250.175 103.434 253.239 103.438 256.434V262.862C103.433 266.057 102.159 269.119 99.8935 271.377C97.6283 273.635 94.5575 274.906 91.3546 274.909L4.88445 274.929Z" fill="black"/>
<path d="M61.364 254.147H53.9688C53.8054 254.147 53.6486 254.082 53.533 253.967C53.4175 253.852 53.3525 253.696 53.3525 253.533C53.3525 253.37 53.4175 253.213 53.533 253.098C53.6486 252.983 53.8054 252.918 53.9688 252.918H61.364C61.5274 252.918 61.6842 252.983 61.7998 253.098C61.9153 253.213 61.9802 253.37 61.9802 253.533C61.9802 253.696 61.9153 253.852 61.7998 253.967C61.6842 254.082 61.5274 254.147 61.364 254.147Z" fill="black"/>
<path d="M49.3221 254.147H10.1153C9.95184 254.147 9.79509 254.082 9.67952 253.967C9.56395 253.852 9.49902 253.696 9.49902 253.533C9.49902 253.37 9.56395 253.213 9.67952 253.098C9.79509 252.983 9.95184 252.918 10.1153 252.918H49.3221C49.4855 252.918 49.6423 252.983 49.7578 253.098C49.8734 253.213 49.9383 253.37 49.9383 253.533C49.9383 253.696 49.8734 253.852 49.7578 253.967C49.6423 254.082 49.4855 254.147 49.3221 254.147Z" fill="black"/>
<path d="M56.8649 258.928H10.4766C10.3132 258.928 10.1564 258.864 10.0408 258.748C9.92528 258.633 9.86035 258.477 9.86035 258.314C9.86035 258.151 9.92528 257.994 10.0408 257.879C10.1564 257.764 10.3132 257.699 10.4766 257.699H56.8649C57.0284 257.699 57.1851 257.764 57.3007 257.879C57.4163 257.994 57.4812 258.151 57.4812 258.314C57.4812 258.477 57.4163 258.633 57.3007 258.748C57.1851 258.864 57.0284 258.928 56.8649 258.928Z" fill="black"/>
<path d="M68.5331 267.505H60.1026C59.9391 267.505 59.7824 267.44 59.6668 267.325C59.5513 267.209 59.4863 267.053 59.4863 266.89C59.4863 266.727 59.5513 266.571 59.6668 266.455C59.7824 266.34 59.9391 266.275 60.1026 266.275H68.5331C68.6965 266.275 68.8533 266.34 68.9689 266.455C69.0844 266.571 69.1494 266.727 69.1494 266.89C69.1494 267.053 69.0844 267.209 68.9689 267.325C68.8533 267.44 68.6965 267.505 68.5331 267.505Z" fill="black"/>
<path d="M56.5036 267.505H10.1153C9.95184 267.505 9.79509 267.44 9.67952 267.325C9.56395 267.209 9.49902 267.053 9.49902 266.89C9.49902 266.727 9.56395 266.571 9.67952 266.455C9.79509 266.34 9.95184 266.275 10.1153 266.275H56.5036C56.6671 266.275 56.8238 266.34 56.9394 266.455C57.055 266.571 57.1199 266.727 57.1199 266.89C57.1199 267.053 57.055 267.209 56.9394 267.325C56.8238 267.44 56.6671 267.505 56.5036 267.505Z" fill="black"/>
<path d="M9.69141 330.863H179.583V289.352H9.69141C14.7078 303.373 14.8434 317.219 9.69141 330.863Z" fill="white"/>
<path d="M179.584 331.478H9.69172C9.59255 331.478 9.49482 331.454 9.40685 331.408C9.31887 331.363 9.24324 331.296 9.18638 331.215C9.12919 331.134 9.09291 331.04 9.08073 330.941C9.06855 330.843 9.08085 330.743 9.11654 330.65C14.1206 317.387 14.1206 303.566 9.11654 289.561C9.0825 289.468 9.07145 289.369 9.08433 289.271C9.09721 289.173 9.13363 289.08 9.19049 289C9.24783 288.919 9.32357 288.853 9.41143 288.808C9.4993 288.762 9.59678 288.738 9.69583 288.737H179.584C179.747 288.737 179.904 288.802 180.019 288.917C180.135 289.033 180.2 289.189 180.2 289.352V330.863C180.2 331.026 180.135 331.182 180.019 331.298C179.904 331.413 179.747 331.478 179.584 331.478ZM10.575 330.248H178.967V289.967H10.5586C15.2792 303.681 15.2833 317.227 10.575 330.248Z" fill="black"/>
<path d="M159.132 291.401H8.52503C7.65333 291.401 6.81733 291.055 6.20094 290.441C5.58456 289.826 5.23828 288.992 5.23828 288.123C5.23828 287.253 5.58456 286.42 6.20094 285.805C6.81733 285.19 7.65333 284.845 8.52503 284.845H203.959C205.852 284.844 207.726 285.216 209.475 285.938C211.224 286.66 212.813 287.719 214.151 289.053C215.49 290.388 216.551 291.973 217.276 293.717C218 295.461 218.372 297.331 218.372 299.218V321.812C218.372 325.624 216.853 329.28 214.15 331.976C211.447 334.671 207.782 336.185 203.959 336.185H8.52503C7.65333 336.185 6.81733 335.84 6.20094 335.225C5.58456 334.611 5.23828 333.777 5.23828 332.908C5.23828 332.038 5.58456 331.204 6.20094 330.59C6.81733 329.975 7.65333 329.63 8.52503 329.63H159.132C161.825 329.63 164.408 328.566 166.316 326.67C168.224 324.775 169.302 322.203 169.313 319.517V301.566C169.314 300.232 169.051 298.911 168.54 297.678C168.029 296.445 167.279 295.324 166.334 294.38C165.389 293.436 164.266 292.687 163.03 292.176C161.794 291.665 160.47 291.401 159.132 291.401Z" fill="white"/>
<path d="M203.959 336.816H8.52488C7.49187 336.815 6.50143 336.406 5.7706 335.678C5.03976 334.95 4.62815 333.962 4.62598 332.932C4.62706 331.901 5.03819 330.913 5.76914 330.184C6.50009 329.455 7.49116 329.045 8.52488 329.044H159.132C161.665 329.04 164.094 328.036 165.887 326.251C167.68 324.465 168.69 322.044 168.696 319.517V301.566C168.693 299.037 167.684 296.613 165.891 294.825C164.098 293.037 161.667 292.031 159.132 292.027H8.52488C7.49187 292.026 6.50143 291.617 5.7706 290.889C5.03976 290.161 4.62815 289.173 4.62598 288.143C4.62815 287.113 5.03976 286.126 5.7706 285.397C6.50143 284.669 7.49187 284.26 8.52488 284.259H203.959C207.94 284.265 211.756 285.845 214.571 288.652C217.387 291.459 218.972 295.265 218.979 299.235V321.828C218.975 325.801 217.391 329.609 214.576 332.419C211.76 335.228 207.942 336.81 203.959 336.816ZM8.52488 330.261C7.81805 330.262 7.14047 330.542 6.64067 331.041C6.14086 331.539 5.8596 332.215 5.85851 332.92C5.8596 333.624 6.14099 334.3 6.64092 334.798C7.14084 335.295 7.81843 335.575 8.52488 335.575H203.959C207.613 335.57 211.117 334.12 213.701 331.543C216.285 328.966 217.74 325.473 217.747 321.828V299.235C217.744 295.587 216.289 292.089 213.702 289.509C211.116 286.93 207.609 285.479 203.951 285.476H8.52488C7.81843 285.476 7.14084 285.755 6.64092 286.253C6.14099 286.751 5.8596 287.426 5.85851 288.131C5.8596 288.835 6.14099 289.511 6.64092 290.009C7.14084 290.506 7.81843 290.786 8.52488 290.786H159.132C161.994 290.789 164.739 291.925 166.763 293.943C168.787 295.962 169.926 298.699 169.929 301.554V319.517C169.926 322.372 168.787 325.109 166.763 327.128C164.739 329.146 161.994 330.282 159.132 330.285L8.52488 330.261Z" fill="black"/>
<path d="M37.7979 299.825H12.6954C12.5319 299.825 12.3752 299.76 12.2596 299.645C12.144 299.53 12.0791 299.373 12.0791 299.21C12.0791 299.047 12.144 298.891 12.2596 298.776C12.3752 298.66 12.5319 298.596 12.6954 298.596H37.7979C37.9613 298.596 38.1181 298.66 38.2337 298.776C38.3492 298.891 38.4142 299.047 38.4142 299.21C38.4142 299.373 38.3492 299.53 38.2337 299.645C38.1181 299.76 37.9613 299.825 37.7979 299.825Z" fill="black"/>
<path d="M87.6867 299.825H42.0831C41.9196 299.825 41.7629 299.76 41.6473 299.645C41.5317 299.53 41.4668 299.373 41.4668 299.21C41.4668 299.047 41.5317 298.891 41.6473 298.776C41.7629 298.66 41.9196 298.596 42.0831 298.596H87.6867C87.8501 298.596 88.0069 298.66 88.1224 298.776C88.238 298.891 88.3029 299.047 88.3029 299.21C88.3029 299.373 88.238 299.53 88.1224 299.645C88.0069 299.76 87.8501 299.825 87.6867 299.825Z" fill="black"/>
<path d="M75.9153 305.365H13.2247C13.0612 305.365 12.9045 305.3 12.7889 305.185C12.6733 305.07 12.6084 304.913 12.6084 304.75C12.6084 304.587 12.6733 304.431 12.7889 304.316C12.9045 304.201 13.0612 304.136 13.2247 304.136H75.9153C76.0787 304.136 76.2355 304.201 76.351 304.316C76.4666 304.431 76.5315 304.587 76.5315 304.75C76.5315 304.913 76.4666 305.07 76.351 305.185C76.2355 305.3 76.0787 305.365 75.9153 305.365Z" fill="black"/>
<path d="M93.9765 305.365H81.2198C81.0563 305.365 80.8996 305.3 80.784 305.185C80.6684 305.07 80.6035 304.913 80.6035 304.75C80.6035 304.587 80.6684 304.431 80.784 304.316C80.8996 304.201 81.0563 304.136 81.2198 304.136H93.9765C94.1399 304.136 94.2967 304.201 94.4122 304.316C94.5278 304.431 94.5927 304.587 94.5927 304.75C94.5927 304.913 94.5278 305.07 94.4122 305.185C94.2967 305.3 94.1399 305.365 93.9765 305.365Z" fill="black"/>
<path d="M79.7032 316.932H13.2247C13.0612 316.932 12.9045 316.867 12.7889 316.752C12.6733 316.637 12.6084 316.48 12.6084 316.317C12.6084 316.154 12.6733 315.998 12.7889 315.883C12.9045 315.767 13.0612 315.703 13.2247 315.703H79.7032C79.8667 315.703 80.0234 315.767 80.139 315.883C80.2546 315.998 80.3195 316.154 80.3195 316.317C80.3184 316.48 80.2531 316.636 80.1378 316.751C80.0225 316.866 79.8663 316.931 79.7032 316.932Z" fill="black"/>
<path d="M87.6866 316.932H84.3711C84.208 316.931 84.0519 316.866 83.9366 316.751C83.8212 316.636 83.756 316.48 83.7549 316.317C83.7549 316.154 83.8198 315.998 83.9354 315.883C84.051 315.767 84.2077 315.703 84.3711 315.703H87.6866C87.8501 315.703 88.0068 315.767 88.1224 315.883C88.238 315.998 88.3029 316.154 88.3029 316.317C88.3029 316.48 88.238 316.637 88.1224 316.752C88.0068 316.867 87.8501 316.932 87.6866 316.932Z" fill="black"/>
<path d="M130.701 313.08C131.773 311.994 137.985 292.732 137.985 292.732L150.253 301.464L136.802 319.493L130.701 313.08Z" fill="white"/>
<path d="M136.811 320.107C136.727 320.107 136.644 320.09 136.567 320.057C136.49 320.024 136.421 319.975 136.363 319.915L130.237 313.502C130.127 313.389 130.065 313.237 130.065 313.078C130.065 312.92 130.127 312.768 130.237 312.654C131.018 311.72 135.028 299.829 137.378 292.544C137.406 292.447 137.459 292.358 137.53 292.287C137.602 292.215 137.691 292.163 137.789 292.134C137.881 292.104 137.979 292.095 138.076 292.109C138.172 292.123 138.264 292.16 138.343 292.216L150.611 300.948C150.679 300.995 150.736 301.056 150.779 301.127C150.822 301.197 150.85 301.276 150.862 301.358C150.874 301.439 150.87 301.521 150.851 301.601C150.831 301.68 150.795 301.755 150.747 301.821L137.296 319.849C137.243 319.922 137.175 319.982 137.096 320.024C137.017 320.067 136.929 320.091 136.839 320.095L136.811 320.107ZM131.47 312.994L136.745 318.538L149.383 301.599L138.314 293.704C136.745 298.559 132.904 310.253 131.47 312.994Z" fill="black"/>
<path d="M152.809 337.436L144.65 337.386C141.992 337.371 139.38 336.698 137.048 335.427C134.716 334.156 132.737 332.328 131.289 330.105L123.22 317.366C122.693 316.534 122.343 315.601 122.194 314.627C122.044 313.653 122.098 312.659 122.352 311.707C122.606 310.755 123.054 309.866 123.669 309.095C124.283 308.323 125.051 307.687 125.923 307.225C129.292 305.439 132.822 303.702 133.647 303.779C135.328 303.939 136.006 311.859 136.006 311.859L143.273 312.138C143.273 312.138 146.864 327.032 150.024 328.724C152.055 329.849 153.771 331.463 155.015 333.42C155.272 333.814 155.418 334.27 155.436 334.739C155.453 335.209 155.343 335.674 155.117 336.086C154.891 336.498 154.556 336.841 154.15 337.079C153.744 337.317 153.28 337.44 152.809 337.436Z" fill="black"/>
<path d="M152.012 334.874H151.917L140.759 333.199C139.431 333.001 138.164 332.512 137.05 331.767C135.935 331.021 135 330.038 134.313 328.888L124.453 312.457C124.411 312.388 124.384 312.312 124.372 312.232C124.36 312.152 124.364 312.071 124.384 311.993C124.404 311.915 124.439 311.842 124.487 311.777C124.536 311.713 124.597 311.658 124.666 311.617C124.735 311.576 124.812 311.548 124.891 311.536C124.971 311.524 125.053 311.528 125.131 311.547C125.209 311.567 125.283 311.601 125.348 311.649C125.412 311.697 125.467 311.757 125.508 311.826L135.369 328.257C135.96 329.248 136.765 330.095 137.725 330.738C138.685 331.381 139.776 331.803 140.919 331.973L152.082 333.649C152.162 333.661 152.239 333.689 152.308 333.731C152.378 333.772 152.438 333.827 152.486 333.893C152.534 333.958 152.569 334.032 152.589 334.11C152.608 334.189 152.612 334.27 152.599 334.35C152.578 334.492 152.508 334.622 152.401 334.718C152.293 334.814 152.156 334.869 152.012 334.874Z" fill="white"/>
<path d="M138.216 322.517C138.08 322.517 137.948 322.472 137.84 322.39C137.733 322.308 137.655 322.193 137.62 322.062C137.575 321.908 137.593 321.742 137.67 321.601C137.747 321.46 137.876 321.355 138.031 321.308L144.251 319.62C144.33 319.595 144.414 319.587 144.496 319.595C144.579 319.603 144.659 319.628 144.732 319.669C144.804 319.709 144.868 319.763 144.919 319.829C144.97 319.895 145.007 319.97 145.027 320.05C145.048 320.128 145.054 320.21 145.043 320.29C145.033 320.37 145.007 320.447 144.966 320.517C144.926 320.587 144.872 320.649 144.808 320.698C144.743 320.747 144.67 320.783 144.592 320.804L138.376 322.496C138.323 322.509 138.27 322.516 138.216 322.517Z" fill="white"/>
<path d="M141.453 325.7C141.315 325.7 141.182 325.654 141.073 325.569C140.964 325.485 140.887 325.366 140.853 325.233C140.815 325.075 140.841 324.907 140.925 324.768C141.01 324.628 141.147 324.527 141.305 324.487L145.475 323.471C145.554 323.452 145.635 323.448 145.715 323.46C145.795 323.472 145.872 323.5 145.941 323.542C146.011 323.584 146.071 323.639 146.118 323.704C146.166 323.769 146.2 323.844 146.219 323.922C146.239 324.001 146.242 324.082 146.23 324.162C146.218 324.242 146.19 324.319 146.148 324.389C146.106 324.458 146.051 324.518 145.986 324.566C145.92 324.614 145.846 324.649 145.767 324.668L141.601 325.684C141.553 325.695 141.503 325.701 141.453 325.7Z" fill="white"/>
<path d="M172.562 309.405L186.811 323.676L194.362 320.91L181.231 302.652L172.562 309.405Z" fill="white"/>
<path d="M186.811 324.291C186.729 324.291 186.648 324.275 186.573 324.245C186.497 324.214 186.429 324.168 186.371 324.11L172.144 309.839C172.083 309.777 172.035 309.702 172.005 309.62C171.974 309.538 171.961 309.451 171.967 309.364C171.972 309.278 171.995 309.193 172.036 309.117C172.076 309.041 172.133 308.974 172.201 308.921L180.866 302.165C180.932 302.114 181.007 302.077 181.088 302.055C181.168 302.034 181.252 302.03 181.334 302.042C181.416 302.054 181.495 302.082 181.565 302.125C181.636 302.168 181.697 302.224 181.745 302.292L194.892 320.554C194.948 320.63 194.986 320.718 195.002 320.811C195.017 320.905 195.011 321 194.983 321.091C194.956 321.184 194.908 321.269 194.842 321.34C194.777 321.411 194.695 321.466 194.605 321.5L187.053 324.266C186.975 324.29 186.893 324.298 186.811 324.291ZM173.491 309.462L186.967 322.984L193.389 320.632L181.104 303.537L173.491 309.462Z" fill="black"/>
<path d="M182.308 321.443C182.308 321.443 181.622 327.516 182.789 332.883C183.101 334.272 183.881 335.512 184.997 336.398C186.113 337.284 187.5 337.763 188.927 337.755H223.91C224.458 337.754 224.994 337.585 225.443 337.271C225.892 336.956 226.233 336.512 226.42 335.997C226.607 335.483 226.631 334.923 226.488 334.395C226.346 333.867 226.044 333.395 225.623 333.043C219.407 327.848 207.957 319.931 193.914 317.592L189.995 323.062L182.308 321.443Z" fill="black"/>
<path d="M222.226 333.575H185.993C185.83 333.575 185.673 333.511 185.557 333.395C185.442 333.28 185.377 333.124 185.377 332.961C185.377 332.798 185.442 332.641 185.557 332.526C185.673 332.411 185.83 332.346 185.993 332.346H222.226C222.389 332.346 222.546 332.411 222.661 332.526C222.777 332.641 222.842 332.798 222.842 332.961C222.842 333.124 222.777 333.28 222.661 333.395C222.546 333.511 222.389 333.575 222.226 333.575Z" fill="white"/>
<path d="M202.008 327.155C201.928 327.154 201.848 327.139 201.774 327.11C201.697 327.079 201.627 327.033 201.569 326.975C201.51 326.917 201.464 326.847 201.433 326.771C201.402 326.694 201.386 326.612 201.388 326.53C201.389 326.447 201.407 326.366 201.441 326.29L203.368 321.669C203.398 321.592 203.444 321.522 203.502 321.463C203.56 321.404 203.63 321.358 203.707 321.326C203.783 321.295 203.866 321.279 203.949 321.28C204.032 321.281 204.113 321.299 204.189 321.333C204.266 321.363 204.336 321.409 204.394 321.468C204.453 321.526 204.499 321.595 204.53 321.672C204.561 321.748 204.576 321.83 204.575 321.913C204.574 321.995 204.556 322.077 204.522 322.152L202.603 326.79C202.553 326.904 202.469 327 202.362 327.065C202.256 327.13 202.132 327.162 202.008 327.155Z" fill="white"/>
<path d="M208.298 328.376C208.232 328.375 208.167 328.364 208.105 328.343C208.026 328.32 207.953 328.282 207.889 328.23C207.826 328.179 207.773 328.115 207.735 328.043C207.697 327.97 207.673 327.891 207.666 327.81C207.659 327.729 207.669 327.647 207.694 327.569L209.12 323.381C209.171 323.227 209.282 323.1 209.427 323.027C209.573 322.954 209.741 322.941 209.896 322.992C209.975 323.015 210.048 323.053 210.111 323.105C210.175 323.157 210.227 323.22 210.266 323.293C210.304 323.365 210.327 323.444 210.334 323.525C210.342 323.607 210.332 323.689 210.307 323.766L208.922 327.954C208.879 328.083 208.795 328.194 208.682 328.271C208.569 328.347 208.434 328.384 208.298 328.376Z" fill="white"/>
<path d="M97.1644 209.522C97.1644 209.522 162.283 201.966 181.626 218.675C200.968 235.385 151.067 307.258 151.067 307.258L135.278 295.58L150.254 244.772L90.0732 227.735L97.1644 209.522Z" fill="black"/>
<path d="M61.3392 242.6C70.7886 245.592 87.7154 249.464 111.363 249.156C114.657 249.11 117.898 249.982 120.721 251.676C123.544 253.369 125.835 255.816 127.337 258.74C134.321 272.438 149.502 297.108 174.202 313.097L185.993 306.758L155.891 239.154C154.53 236.101 152.569 233.351 150.122 231.068C147.675 228.785 144.793 227.016 141.647 225.866L81.9841 204.044C81.9841 204.044 63.4961 198.889 54.4124 215.361C52.7937 218.299 49.7863 213.042 49.0714 215.414C46.6105 223.551 53.2168 240.027 61.3392 242.6Z" fill="black"/>
<path d="M169.493 270.312C169.374 270.312 169.257 270.277 169.158 270.212C169.058 270.148 168.979 270.055 168.93 269.947L155.327 239.405C153.993 236.43 152.076 233.751 149.691 231.525C147.305 229.299 144.497 227.57 141.433 226.44L112.862 215.992C112.709 215.937 112.584 215.822 112.514 215.675C112.445 215.527 112.437 215.359 112.493 215.205C112.521 215.129 112.563 215.06 112.618 215C112.673 214.941 112.74 214.893 112.813 214.859C112.887 214.825 112.967 214.806 113.048 214.803C113.129 214.8 113.21 214.812 113.286 214.841L141.856 225.277C145.076 226.462 148.027 228.278 150.533 230.616C153.04 232.955 155.053 235.771 156.453 238.897L170.056 269.435C170.091 269.509 170.11 269.589 170.113 269.671C170.116 269.752 170.103 269.834 170.074 269.91C170.045 269.987 170 270.057 169.944 270.116C169.887 270.175 169.819 270.222 169.744 270.254C169.665 270.291 169.58 270.311 169.493 270.312Z" fill="white"/>
<path d="M153.611 296.572C153.528 296.571 153.446 296.555 153.37 296.522C153.294 296.49 153.225 296.443 153.167 296.383C150.427 293.54 147.732 290.491 145.156 287.312C145.054 287.185 145.006 287.023 145.023 286.861C145.04 286.699 145.12 286.551 145.246 286.447C145.309 286.397 145.382 286.359 145.459 286.336C145.537 286.314 145.618 286.306 145.699 286.315C145.779 286.324 145.857 286.348 145.928 286.387C145.999 286.426 146.062 286.478 146.113 286.541C148.668 289.688 151.339 292.712 154.054 295.531C154.112 295.588 154.158 295.656 154.189 295.73C154.22 295.805 154.236 295.885 154.236 295.966C154.236 296.046 154.22 296.126 154.189 296.201C154.158 296.275 154.112 296.343 154.054 296.4C153.996 296.457 153.926 296.501 153.85 296.531C153.774 296.561 153.692 296.575 153.611 296.572Z" fill="white"/>
<path d="M145.636 287.558C145.544 287.558 145.453 287.537 145.369 287.497C145.286 287.458 145.213 287.4 145.155 287.328C143.894 285.771 142.633 284.153 141.408 282.514C141.36 282.449 141.325 282.376 141.304 282.297C141.284 282.219 141.28 282.138 141.291 282.058C141.303 281.978 141.33 281.901 141.371 281.832C141.412 281.762 141.467 281.702 141.532 281.653C141.597 281.605 141.671 281.57 141.749 281.55C141.828 281.531 141.909 281.527 141.989 281.538C142.07 281.55 142.147 281.578 142.216 281.619C142.286 281.661 142.346 281.715 142.394 281.78C143.627 283.419 144.859 285.013 146.092 286.558C146.194 286.685 146.242 286.847 146.225 287.009C146.208 287.17 146.128 287.319 146.002 287.422C145.897 287.505 145.769 287.553 145.636 287.558Z" fill="white"/>
<path d="M182.004 114.556L165.044 123.689C165.044 123.689 154.646 150.732 139.765 152.371C124.884 154.01 110.164 133.474 110.164 133.474L100.304 154.551C100.304 154.551 114.806 176.919 137.81 173.313C160.813 169.708 167.082 135.248 167.082 135.248C167.082 135.248 172.526 135.785 174.58 130.487C176.33 125.98 175.599 123.325 175.599 123.325C175.599 123.325 183.775 118.957 182.004 114.556Z" fill="white"/>
<path d="M132.863 174.3C123.093 174.3 115.197 169.834 110.049 165.749C106.102 162.652 102.64 158.985 99.7777 154.87C99.7209 154.783 99.6874 154.683 99.6802 154.579C99.673 154.475 99.6924 154.371 99.7366 154.276L109.597 133.195C109.643 133.098 109.713 133.014 109.801 132.953C109.889 132.891 109.991 132.853 110.098 132.843C110.206 132.834 110.314 132.853 110.412 132.898C110.509 132.943 110.594 133.013 110.657 133.101C110.801 133.302 125.344 153.313 139.691 151.744C154.038 150.175 164.342 123.734 164.461 123.472C164.513 123.335 164.612 123.222 164.74 123.152L181.704 114.019C181.78 113.979 181.864 113.955 181.951 113.948C182.037 113.942 182.124 113.954 182.205 113.982C182.287 114.013 182.361 114.06 182.423 114.12C182.486 114.181 182.534 114.254 182.567 114.335C184.284 118.641 177.957 122.648 176.26 123.632C176.404 124.627 176.523 127.106 175.13 130.696C174.63 132.069 173.753 133.276 172.6 134.178C171.447 135.08 170.063 135.643 168.606 135.801C168.258 135.848 167.906 135.876 167.555 135.883C166.254 141.863 164.256 147.67 161.601 153.186C155.71 165.233 147.518 172.42 137.904 173.903C136.237 174.168 134.551 174.3 132.863 174.3ZM101.01 154.477C102.777 157.017 116.77 175.976 137.715 172.69C160.016 169.195 166.412 135.461 166.474 135.121C166.497 134.996 166.558 134.881 166.65 134.792C166.741 134.703 166.858 134.645 166.983 134.625C167.053 134.613 167.124 134.613 167.193 134.625C167.464 134.625 172.193 134.92 174.005 130.249C175.648 126.02 175.011 123.492 175.003 123.468C174.968 123.333 174.979 123.19 175.035 123.062C175.091 122.934 175.188 122.829 175.311 122.763C175.381 122.726 182.102 119.075 181.626 115.47L165.57 124.119C164.481 126.869 154.412 151.375 139.868 152.965C139.273 153.03 138.675 153.063 138.077 153.063C125.225 153.063 113.184 138.395 110.32 134.65L101.01 154.477Z" fill="black"/>
<path d="M166.597 132.966C166.466 132.966 166.337 132.924 166.231 132.846C166.126 132.767 166.048 132.657 166.01 132.531C165.986 132.454 165.977 132.373 165.985 132.293C165.993 132.212 166.017 132.134 166.055 132.063C166.093 131.991 166.145 131.928 166.208 131.877C166.271 131.826 166.343 131.788 166.421 131.765C166.449 131.765 169.219 130.868 169.523 128.659C169.747 127.312 170.407 126.075 171.4 125.136C171.989 124.551 172.345 123.774 172.403 122.948L167.534 124.89C167.459 124.92 167.378 124.934 167.297 124.933C167.216 124.932 167.136 124.915 167.062 124.883C166.988 124.851 166.92 124.805 166.864 124.747C166.807 124.689 166.763 124.621 166.733 124.546C166.703 124.47 166.688 124.39 166.689 124.309C166.69 124.229 166.707 124.149 166.739 124.075C166.771 124 166.818 123.933 166.876 123.877C166.934 123.821 167.003 123.776 167.078 123.747L172.797 121.472C172.891 121.437 172.992 121.424 173.092 121.434C173.192 121.445 173.288 121.479 173.372 121.534C173.455 121.591 173.523 121.668 173.569 121.757C173.616 121.846 173.64 121.945 173.639 122.046V122.698C173.643 123.313 173.523 123.923 173.287 124.493C173.052 125.062 172.705 125.578 172.267 126.012C171.467 126.766 170.932 127.755 170.739 128.836C170.328 131.827 166.922 132.904 166.778 132.933C166.72 132.952 166.659 132.963 166.597 132.966Z" fill="black"/>
<path d="M57.2345 124.128C64.6954 122.378 67.8055 122.354 94.9171 123.333C101.544 123.575 109.428 131.868 110.209 138.436C108.101 144.734 98.3805 175.837 115.348 200.139C118.209 204.219 121.635 207.873 125.525 210.993C122.066 213.822 118.083 215.945 113.804 217.242C105.057 219.831 100.657 217.029 93.6065 217.242C74.9583 217.795 68.1342 238.507 56.0801 235.906C52.8632 235.213 48.5986 232.71 44.6052 224.318C42.019 216.39 40.2083 208.231 39.1985 199.955C36.1583 174.919 41.1377 154.064 45.583 140.997C46.91 136.867 48.4425 126.189 57.2345 124.128Z" fill="#01A9BE"/>
<path d="M123.503 142.918C123.503 142.918 109.259 125.025 96.7041 123.599L102.891 170.974L123.503 142.918Z" fill="#01A9BE"/>
<path d="M97.2257 174.305L89.2923 175.169C89.1228 175.188 88.9584 175.238 88.8075 175.317L72.345 184.155C72.1047 184.283 71.8308 184.334 71.5603 184.302L54.0707 182.188C53.333 182.099 52.622 181.857 51.9833 181.478C51.3446 181.1 50.7923 180.592 50.3615 179.988C49.9307 179.384 49.6311 178.697 49.4817 177.971C49.3323 177.245 49.3365 176.496 49.4939 175.772L53.2408 158.587C53.2855 158.382 53.2804 158.17 53.2261 157.967C53.1718 157.765 53.0698 157.579 52.9286 157.423L36.6386 139.485C36.4761 139.305 36.267 139.174 36.0344 139.105C35.8018 139.036 35.5546 139.033 35.3202 139.095C35.0858 139.157 34.8731 139.283 34.7056 139.458C34.5381 139.633 34.4222 139.851 34.3708 140.087C32.6904 147.835 21.3347 177.685 29.5516 191.678C38.2697 206.498 71.3508 196.148 71.3508 196.148C71.4592 196.171 71.5721 196.156 71.6712 196.107C71.6712 196.107 75.8495 194.231 78.2653 193.202C80.5989 192.206 83.1625 188.498 84.3951 186.54C84.492 186.385 84.6203 186.252 84.7717 186.149C84.9231 186.046 85.0943 185.976 85.2745 185.943C85.4546 185.91 85.6396 185.914 85.8178 185.956C85.9961 185.998 86.1635 186.077 86.3096 186.187L89.3745 188.498C89.8894 188.885 90.4762 189.166 91.1009 189.324C91.7255 189.483 92.3756 189.516 93.0132 189.422C93.6508 189.328 94.2633 189.108 94.8151 188.776C95.3669 188.443 95.8469 188.005 96.2273 187.486C97.3038 186.023 98.2117 184.597 98.1624 184.159C97.9323 181.963 97.312 181.094 95.3235 180.23C95.2508 180.198 95.1807 180.161 95.114 180.119L94.6415 179.799C94.4182 179.647 94.247 179.43 94.151 179.178C94.055 178.926 94.0388 178.651 94.1046 178.389C94.1704 178.127 94.3151 177.892 94.5191 177.715C94.723 177.538 94.9765 177.427 95.2454 177.398C96.766 177.188 98.3128 177.511 99.6209 178.312C100.023 178.58 100.446 178.814 100.886 179.013C102.415 179.697 103.499 177.435 102.024 176.64L97.9981 174.469C97.7633 174.337 97.4939 174.28 97.2257 174.305Z" fill="white"/>
<path d="M49.0298 200.303C40.9115 200.303 32.8179 198.426 29.0217 191.973C22.1319 180.258 28.6314 157.94 32.1236 145.951C32.8754 143.361 33.4711 141.316 33.767 139.96C33.8403 139.613 34.0089 139.292 34.2541 139.035C34.4993 138.777 34.8114 138.593 35.1556 138.502C35.5001 138.409 35.8635 138.413 36.2057 138.514C36.5479 138.614 36.8556 138.807 37.0948 139.071L53.3847 157.014C53.592 157.241 53.7416 157.514 53.821 157.811C53.9003 158.107 53.9071 158.418 53.8408 158.718L50.098 175.903C49.9584 176.543 49.9543 177.205 50.0858 177.848C50.2174 178.49 50.4818 179.097 50.8621 179.631C51.244 180.166 51.7336 180.615 52.2996 180.951C52.8655 181.286 53.4954 181.499 54.1489 181.578L71.6385 183.692C71.7801 183.706 71.9227 183.679 72.0493 183.614L88.5118 174.776C88.7319 174.657 88.9736 174.583 89.2226 174.559L97.156 173.694C97.5473 173.65 97.9428 173.726 98.2899 173.911L102.316 176.083C102.541 176.196 102.741 176.353 102.904 176.544C103.068 176.735 103.191 176.956 103.268 177.196C103.344 177.435 103.372 177.687 103.35 177.937C103.328 178.187 103.255 178.43 103.138 178.652C103.035 178.876 102.889 179.078 102.708 179.245C102.526 179.412 102.313 179.542 102.081 179.626C101.849 179.71 101.602 179.748 101.356 179.736C101.109 179.724 100.867 179.664 100.644 179.558C100.176 179.345 99.7255 179.095 99.2965 178.812C98.1098 178.082 96.7033 177.792 95.3236 177.992C95.178 178.005 95.0401 178.063 94.93 178.159C94.8199 178.255 94.7433 178.383 94.7115 178.525C94.6734 178.664 94.6808 178.812 94.7325 178.947C94.7842 179.082 94.8776 179.197 94.9991 179.275L95.4715 179.59C95.5067 179.614 95.5438 179.635 95.5825 179.652C97.7558 180.594 98.5364 181.672 98.7911 184.081C98.8158 184.331 98.8774 184.925 96.7369 187.83C96.3082 188.419 95.7655 188.915 95.141 189.29C94.5164 189.665 93.8227 189.911 93.101 190.014C92.3848 190.122 91.6543 190.085 90.9527 189.905C90.2512 189.726 89.593 189.408 89.0172 188.97L85.9523 186.663C85.8753 186.603 85.7863 186.56 85.6913 186.537C85.5963 186.515 85.4976 186.513 85.4018 186.532C85.3049 186.549 85.2127 186.586 85.1313 186.641C85.0499 186.696 84.981 186.768 84.9293 186.851C83.594 188.978 80.9852 192.698 78.5201 193.751C76.1372 194.767 71.9795 196.619 71.9466 196.652C71.7851 196.724 71.6097 196.759 71.4331 196.755C69.9705 197.197 59.4775 200.303 49.0298 200.303ZM35.6651 139.661C35.6012 139.661 35.5377 139.669 35.4761 139.686C35.3508 139.718 35.2371 139.785 35.1478 139.878C35.0586 139.972 34.9972 140.088 34.9707 140.214C34.6667 141.616 34.0669 143.677 33.3068 146.291C29.8681 158.1 23.4466 180.09 30.0858 191.362C38.4547 205.597 70.8415 195.661 71.1701 195.558L71.355 195.501L71.4536 195.529C71.8316 195.361 75.7387 193.608 78.0271 192.633C79.6007 191.961 81.7247 189.621 83.8775 186.208C84.0211 185.982 84.2097 185.788 84.4316 185.638C84.6535 185.488 84.904 185.385 85.1676 185.335C85.4312 185.287 85.7021 185.293 85.963 185.355C86.224 185.416 86.4693 185.531 86.6836 185.692L89.7526 188.003C90.1984 188.343 90.708 188.59 91.2513 188.731C91.7946 188.872 92.3606 188.903 92.9161 188.822C93.4759 188.742 94.0141 188.551 94.4988 188.26C94.9835 187.97 95.4051 187.585 95.7386 187.13C97.082 185.302 97.5093 184.425 97.5504 184.2C97.3409 182.242 96.852 181.57 95.0853 180.803C94.9793 180.756 94.8775 180.7 94.7813 180.635L94.3088 180.32C93.9806 180.102 93.7278 179.788 93.5852 179.421C93.4425 179.055 93.4169 178.653 93.5118 178.271C93.6038 177.885 93.8143 177.537 94.114 177.275C94.4137 177.014 94.7877 176.852 95.1839 176.812C96.8472 176.578 98.5404 176.934 99.9662 177.82C100.341 178.07 100.735 178.29 101.145 178.476C101.224 178.516 101.311 178.539 101.399 178.544C101.487 178.549 101.576 178.536 101.659 178.505C101.742 178.474 101.818 178.427 101.881 178.365C101.945 178.304 101.995 178.23 102.029 178.148C102.073 178.068 102.102 177.979 102.111 177.888C102.121 177.797 102.112 177.704 102.086 177.616C102.059 177.528 102.014 177.446 101.955 177.376C101.896 177.305 101.823 177.248 101.741 177.206L97.7106 175.034C97.5846 174.968 97.4415 174.941 97.2998 174.956L89.3582 175.78C89.269 175.789 89.1824 175.815 89.1035 175.858L72.6368 184.712C72.2845 184.9 71.8832 184.976 71.4865 184.929L53.9969 182.815C53.1738 182.715 52.3808 182.444 51.6685 182.021C50.9561 181.598 50.3401 181.031 49.8597 180.357C49.3771 179.682 49.0415 178.913 48.8745 178.101C48.7075 177.289 48.7128 176.451 48.8901 175.641L52.6329 158.456C52.6567 158.347 52.6543 158.234 52.6257 158.127C52.5971 158.019 52.5432 157.92 52.4685 157.837L36.1745 139.899C36.1109 139.826 36.0326 139.768 35.9448 139.728C35.857 139.687 35.7617 139.666 35.6651 139.665V139.661Z" fill="black"/>
<path d="M88.2988 179.914L97.2264 186.06L88.2988 179.914Z" fill="white"/>
<path d="M97.226 186.683C97.1014 186.684 96.9794 186.647 96.8768 186.576L87.9492 180.43C87.8153 180.337 87.7238 180.194 87.6946 180.034C87.6653 179.874 87.7007 179.708 87.793 179.574C87.8387 179.507 87.8971 179.451 87.9649 179.407C88.0326 179.363 88.1084 179.333 88.1878 179.319C88.2673 179.304 88.3488 179.305 88.4277 179.322C88.5066 179.34 88.5813 179.372 88.6476 179.418L97.5752 185.564C97.7091 185.658 97.8006 185.8 97.8298 185.96C97.859 186.121 97.8236 186.286 97.7313 186.421C97.6747 186.502 97.5992 186.568 97.5111 186.614C97.4231 186.66 97.3252 186.683 97.226 186.683Z" fill="black"/>
<path d="M87.3369 183.041L95.1922 188.744L87.3369 183.041Z" fill="white"/>
<path d="M95.1925 189.359C95.0617 189.359 94.9339 189.319 94.8269 189.244L86.9715 183.536C86.9062 183.488 86.8509 183.428 86.8089 183.359C86.7669 183.29 86.739 183.213 86.7268 183.133C86.7145 183.053 86.7183 182.972 86.7377 182.893C86.7571 182.815 86.7919 182.741 86.8401 182.676C86.9362 182.545 87.0805 182.457 87.2414 182.431C87.4023 182.406 87.5667 182.445 87.6987 182.54L95.554 188.248C95.6197 188.296 95.6754 188.356 95.7178 188.425C95.7602 188.494 95.7885 188.57 95.8011 188.65C95.8137 188.73 95.8103 188.812 95.7912 188.891C95.7721 188.969 95.7375 189.043 95.6896 189.109C95.6325 189.187 95.5576 189.25 95.4712 189.293C95.3848 189.337 95.2893 189.359 95.1925 189.359Z" fill="black"/>
<path d="M23.5908 159.492C23.5908 159.492 28.3114 147.954 31.3968 140.308C38.262 123.333 59.8601 123.333 59.8601 123.333L54.93 168.171L23.5908 159.492Z" fill="#01A9BE"/>
<path d="M71.8193 107.811C70.4538 108.564 68.9081 108.929 67.3493 108.869C63.5326 108.651 61.084 105.591 60.591 104.968C58.0602 101.792 56.84 96.5804 58.9887 93.5196C60.5334 91.3193 62.4767 92.147 64.2557 89.6844C66.277 86.8859 64.2064 84.6036 66.0675 82.1574C68.2121 79.3384 72.9409 79.5515 73.7914 79.5924C76.7083 79.7236 77.0535 81.1659 79.8143 81.0921C82.5752 81.0184 82.9984 79.6047 85.5661 79.5924C87.6203 79.5924 90.6113 80.4529 91.9506 82.8171C93.6351 85.7918 91.9137 89.7049 89.8964 91.77C87.4971 94.2489 85.8085 92.9214 82.4519 94.9414C76.6714 98.4406 78.06 104.677 71.8193 107.811Z" fill="black"/>
<path d="M82.6574 121.022L81.0798 111.245C82.286 111.074 83.4819 110.837 84.6624 110.536C87.3493 109.205 86.6015 102.477 86.6015 102.477L88.097 100.698L83.6393 90.7539C78.9064 94.6874 77.222 90.8236 72.5466 92.7617C67.8712 94.6997 70.3938 99.8953 70.3938 99.8953C70.3938 99.8953 66.5688 98.2153 67.3864 101.907C68.0026 104.693 70.0404 104.87 71.3798 104.775L68.886 121.538C68.886 121.538 60.8499 123.816 59.2969 124.226C61.3182 124.132 75.2992 130.196 91.1578 123.566L82.6574 121.022Z" fill="white"/>
<path d="M75.4556 127.262C70.7626 127.205 66.0966 126.544 61.5732 125.295C60.8381 125.077 60.0865 124.918 59.3259 124.82C59.1739 124.828 59.0244 124.779 58.9067 124.683C58.7889 124.586 58.7113 124.45 58.6891 124.3C58.6656 124.15 58.6983 123.997 58.7809 123.87C58.8636 123.743 58.9903 123.651 59.1369 123.611C60.4762 123.259 66.7169 121.493 68.3357 121.034L70.6651 105.39C68.0768 105.308 67.1237 103.563 66.7827 102.038C66.5033 100.768 66.6841 99.8546 67.3291 99.3301C67.6268 99.1291 67.9633 98.9924 68.3171 98.9289C68.6709 98.8654 69.0341 98.8764 69.3833 98.9613C68.9648 97.6652 68.9648 96.2707 69.3833 94.9745C69.6389 94.3348 70.0273 93.7562 70.5229 93.2767C71.0186 92.7972 71.6103 92.4277 72.2592 92.1924C74.4449 91.2909 76.0513 91.5573 77.4687 91.7826C79.2189 92.0735 80.7308 92.3276 83.2205 90.2707C83.2935 90.2095 83.3798 90.1661 83.4725 90.1441C83.5652 90.122 83.6618 90.1219 83.7546 90.1437C83.8455 90.166 83.9299 90.2091 84.0012 90.2695C84.0725 90.33 84.1287 90.4061 84.1654 90.4919L88.6231 100.436C88.6688 100.542 88.6846 100.657 88.6687 100.771C88.6527 100.884 88.6057 100.991 88.5327 101.08L87.2057 102.661C87.3331 104.091 87.6576 109.705 84.9009 111.077C83.8661 111.368 82.8135 111.591 81.7497 111.745L83.1671 120.53L91.2977 122.948C91.4188 122.984 91.5258 123.057 91.6043 123.156C91.6829 123.254 91.7293 123.375 91.7373 123.501C91.7434 123.628 91.7104 123.753 91.6429 123.861C91.5753 123.969 91.4764 124.053 91.3593 124.103C86.3221 126.202 80.9149 127.276 75.4556 127.262ZM61.9265 124.119C66.6512 125.312 77.3496 127.983 89.2681 123.628L82.481 121.612C82.37 121.579 82.2707 121.515 82.1944 121.428C82.1181 121.341 82.0679 121.234 82.0496 121.12L80.472 111.344C80.4596 111.261 80.4638 111.177 80.4842 111.096C80.5047 111.015 80.541 110.939 80.5911 110.873C80.6919 110.743 80.8393 110.658 81.002 110.635C81.3799 110.594 84.0381 110.123 84.3914 109.979C86.2608 109.053 86.1704 104.296 85.9773 102.547C85.9687 102.464 85.9766 102.381 86.0006 102.301C86.0245 102.222 86.0641 102.148 86.117 102.084L87.3495 100.6L83.4013 91.7212C80.8376 93.5937 79.0464 93.2946 77.3085 93.0078C75.9322 92.7783 74.6298 92.5611 72.7892 93.3273C72.295 93.4997 71.8432 93.7747 71.4635 94.1343C71.0839 94.4938 70.7852 94.9296 70.5871 95.4129C69.8599 97.3223 70.9527 99.6046 70.9651 99.6251C71.0211 99.7384 71.0405 99.8662 71.0207 99.991C71.0008 100.116 70.9426 100.231 70.8541 100.322C70.767 100.412 70.6539 100.474 70.5304 100.498C70.4069 100.522 70.2789 100.508 70.1639 100.457C69.5682 100.199 68.5205 99.9652 68.1097 100.281C67.8632 100.486 67.818 101.014 67.9865 101.772C68.3973 103.571 69.4162 104.304 71.3307 104.145C71.423 104.137 71.5159 104.15 71.6026 104.182C71.6893 104.215 71.7676 104.267 71.8319 104.333C71.8945 104.402 71.9413 104.483 71.969 104.571C71.9966 104.66 72.0046 104.753 71.9922 104.845L69.4942 121.612C69.4763 121.728 69.4254 121.837 69.3475 121.926C69.2696 122.014 69.168 122.079 69.0546 122.112C68.9971 122.124 64.823 123.308 61.9265 124.119Z" fill="black"/>
<path d="M79.9872 111.938C78.7783 111.946 77.5869 111.65 76.5232 111.077C75.4596 110.504 74.5582 109.673 73.9026 108.66C73.8254 108.522 73.805 108.359 73.8456 108.206C73.8862 108.054 73.9847 107.922 74.1204 107.84C74.2591 107.765 74.4218 107.745 74.5748 107.785C74.7277 107.826 74.8592 107.923 74.9421 108.058C75.5906 109.023 76.5055 109.781 77.5764 110.24C78.6473 110.699 79.8285 110.839 80.9773 110.643C81.0575 110.632 81.1392 110.636 81.2177 110.656C81.2961 110.676 81.3698 110.712 81.4344 110.761C81.4989 110.809 81.5532 110.871 81.5939 110.94C81.6346 111.01 81.6611 111.087 81.6717 111.168C81.6939 111.329 81.651 111.493 81.5524 111.622C81.4538 111.752 81.3076 111.838 81.1458 111.86C80.7616 111.91 80.3747 111.936 79.9872 111.938Z" fill="black"/>
<path d="M94.2889 212.566H189.132V214.382C189.132 215.251 188.786 216.085 188.169 216.699C187.553 217.314 186.717 217.66 185.845 217.66H97.5592C96.6875 217.66 95.8515 217.314 95.2351 216.699C94.6187 216.085 94.2725 215.251 94.2725 214.382V212.566H94.2889Z" fill="#FFD600"/>
<path d="M185.861 218.258H97.5584C96.528 218.257 95.5401 217.848 94.8114 217.121C94.0828 216.395 93.673 215.409 93.6719 214.382V212.575C93.6719 212.412 93.7368 212.255 93.8524 212.14C93.9679 212.025 94.1247 211.96 94.2881 211.96H189.131C189.295 211.96 189.452 212.025 189.567 212.14C189.683 212.255 189.748 212.412 189.748 212.575V214.394C189.743 215.419 189.332 216.402 188.604 217.126C187.875 217.85 186.889 218.257 185.861 218.258ZM94.9044 213.177V214.382C94.9055 215.083 95.1855 215.756 95.683 216.252C96.1805 216.748 96.8549 217.027 97.5584 217.028H185.861C186.565 217.027 187.239 216.748 187.737 216.252C188.234 215.756 188.514 215.083 188.515 214.382V213.177H94.9044Z" fill="black"/>
<path d="M189.132 212.574H134.863L152.119 162.049C152.638 161.264 153.345 160.62 154.177 160.176C155.008 159.732 155.937 159.501 156.88 159.504H202.743C203.204 159.495 203.661 159.598 204.073 159.803C204.486 160.009 204.843 160.311 205.113 160.684C205.382 161.057 205.558 161.49 205.623 161.945C205.688 162.401 205.642 162.865 205.487 163.299C205.216 164.003 204.924 164.704 204.686 165.421L189.132 212.574Z" fill="#FFD600"/>
<path d="M189.132 213.177H134.863C134.766 213.177 134.669 213.154 134.582 213.11C134.495 213.066 134.42 213.001 134.362 212.923C134.306 212.843 134.269 212.751 134.255 212.654C134.24 212.557 134.249 212.458 134.28 212.365L151.535 161.84C151.551 161.791 151.573 161.744 151.601 161.701C152.176 160.834 152.959 160.123 153.878 159.634C154.798 159.144 155.826 158.891 156.868 158.898H202.743C203.318 158.892 203.887 159.026 204.398 159.291C204.909 159.555 205.346 159.941 205.672 160.414C205.984 160.863 206.183 161.38 206.251 161.921C206.319 162.463 206.254 163.013 206.062 163.524L205.828 164.131C205.635 164.618 205.417 165.122 205.274 165.622L189.719 212.755C189.678 212.878 189.6 212.985 189.494 213.061C189.389 213.137 189.262 213.177 189.132 213.177ZM135.722 211.948H188.688L204.103 165.216C204.275 164.688 204.481 164.163 204.678 163.659C204.756 163.463 204.834 163.25 204.908 163.065C205.031 162.741 205.072 162.391 205.028 162.047C204.985 161.703 204.857 161.374 204.657 161.09C204.444 160.782 204.157 160.531 203.823 160.36C203.489 160.188 203.118 160.102 202.743 160.107H156.868C156.04 160.101 155.223 160.299 154.489 160.683C153.756 161.068 153.129 161.627 152.665 162.311L135.722 211.948Z" fill="black"/>
<path d="M168.992 185.392C168.347 187.531 169.337 189.723 171.202 190.285C173.068 190.846 175.101 189.564 175.75 187.416C176.4 185.269 175.409 183.086 173.54 182.524C171.671 181.963 169.641 183.249 168.992 185.392Z" fill="white"/>
<path d="M84.1944 63.371C84.4422 63.1468 84.6425 62.8754 84.7837 62.5728C84.9248 62.2703 85.0038 61.9426 85.0161 61.6092C85.0161 59.5154 81.7622 57.8149 77.7483 57.8149C73.7343 57.8149 70.4805 59.5154 70.4805 61.6092C70.4928 61.9426 70.5718 62.2703 70.7129 62.5728C70.854 62.8754 71.0544 63.1468 71.3022 63.371C71.054 63.595 70.8534 63.8663 70.7123 64.169C70.5712 64.4716 70.4923 64.7994 70.4805 65.1329C70.4805 66.1245 71.2118 67.03 72.4114 67.7061C72.3836 67.8187 72.3698 67.9343 72.3704 68.0503C72.3704 69.6032 74.7779 70.857 77.7483 70.857C80.7187 70.857 83.1262 69.6032 83.1262 68.0503C83.1268 67.9343 83.113 67.8187 83.0851 67.7061C84.2848 67.03 85.0161 66.1245 85.0161 65.1329C85.0043 64.7994 84.9254 64.4716 84.7843 64.169C84.6432 63.8663 84.4426 63.595 84.1944 63.371Z" fill="black"/>
<path d="M97.2633 32.251C97.2633 27.0913 95.2081 22.143 91.5499 18.4945C87.8916 14.8461 82.93 12.7964 77.7565 12.7964C72.6031 12.7855 67.6556 14.8131 63.9989 18.4347C60.3422 22.0563 58.2746 26.9762 58.2496 32.1157C58.2292 34.7101 58.7305 37.2823 59.7241 39.6801C60.7177 42.0779 62.1833 44.2526 64.0343 46.0757C66.6367 48.6281 68.5015 51.8326 69.4328 55.3523L69.478 55.5243C69.9144 57.1877 70.8907 58.6602 72.2545 59.712C73.6184 60.7639 75.2929 61.3358 77.0169 61.3386H78.4713C80.1954 61.3358 81.8699 60.7639 83.2337 59.712C84.5976 58.6602 85.5739 57.1877 86.0103 55.5243L86.0391 55.4219C86.9396 51.9109 88.7867 48.7127 91.38 46.174C93.2446 44.3637 94.7259 42.1987 95.7365 39.8071C96.747 37.4156 97.2662 34.8462 97.2633 32.251Z" fill="white"/>
<path d="M78.4715 61.9533H77.0171C75.1563 61.9525 73.3484 61.3363 71.8764 60.2011C70.4044 59.066 69.3514 57.476 68.8824 55.6802L68.8372 55.5081C67.933 52.0874 66.1206 48.9733 63.5907 46.4938C61.6756 44.6178 60.1598 42.3756 59.134 39.9016C58.1083 37.4275 57.5937 34.7725 57.6212 32.0954C57.6709 26.7995 59.8125 21.7368 63.5813 18.0057C67.3501 14.2746 72.4421 12.1761 77.7525 12.1655C83.0916 12.1655 88.2121 14.2808 91.9875 18.0461C95.7628 21.8113 97.8838 26.9181 97.8838 32.2429C97.8899 34.9176 97.3553 37.5661 96.312 40.0301C95.2687 42.4941 93.7381 44.7231 91.8115 46.5839C89.3044 49.0474 87.52 52.1475 86.6514 55.5491L86.6226 55.6474C86.1597 57.4524 85.1071 59.0521 83.631 60.194C82.155 61.3359 80.3395 61.955 78.4715 61.9533ZM77.7443 13.4112C72.7591 13.4207 67.9787 15.3904 64.4406 18.893C60.9024 22.3955 58.892 27.1483 58.8455 32.12C58.8199 34.6338 59.3029 37.127 60.2658 39.4503C61.2287 41.7736 62.6516 43.8793 64.4494 45.6415C67.1339 48.2724 69.0583 51.5759 70.0204 55.2049L70.0656 55.3728C70.465 56.9062 71.3635 58.264 72.6201 59.2332C73.8767 60.2025 75.4203 60.7283 77.0089 60.7282H78.4715C80.06 60.7283 81.6036 60.2025 82.8602 59.2332C84.1168 58.264 85.0153 56.9062 85.4147 55.3728L85.4394 55.2704C86.3668 51.6534 88.2676 48.3578 90.9364 45.7398C92.7462 43.9895 94.1837 41.8932 95.1627 39.5763C96.1418 37.2594 96.6425 34.7695 96.6348 32.2552C96.6338 27.2606 94.645 22.4707 91.1053 18.9374C87.5657 15.4042 82.7646 13.4166 77.7566 13.4112H77.7443Z" fill="black"/>
<path d="M79.1119 58.8799C78.958 58.8795 78.8098 58.8216 78.6966 58.7177C78.5833 58.6138 78.5131 58.4715 78.4997 58.3186C77.5096 47.6653 82.4685 31.337 82.6821 30.6487C82.7046 30.5708 82.7425 30.4983 82.7936 30.4354C82.8447 30.3724 82.9079 30.3203 82.9795 30.2821C83.0512 30.2439 83.1297 30.2204 83.2106 30.213C83.2915 30.2056 83.373 30.2144 83.4504 30.2389C83.5281 30.2619 83.6005 30.3 83.6633 30.351C83.7261 30.4021 83.7781 30.4651 83.8164 30.5364C83.8546 30.6077 83.8782 30.6858 83.8859 30.7663C83.8936 30.8468 83.8852 30.9279 83.8612 31.0051C83.8119 31.1731 78.7627 47.7841 79.7322 58.2038C79.746 58.3661 79.695 58.5272 79.5904 58.6522C79.4858 58.7773 79.336 58.8561 79.1735 58.8717L79.1119 58.8799Z" fill="black"/>
<path d="M76.7003 58.4294C76.539 58.4295 76.3841 58.3664 76.2689 58.2538C76.1536 58.1412 76.0873 57.9879 76.0841 57.8271C75.7184 37.7497 71.7825 32.0133 71.7414 31.9478C71.6479 31.8148 71.6105 31.6505 71.6374 31.4902C71.6643 31.33 71.7533 31.1867 71.8852 31.0914C71.9504 31.0437 72.0244 31.0094 72.1029 30.9904C72.1815 30.9714 72.263 30.968 72.3428 30.9806C72.4226 30.9932 72.4992 31.0214 72.568 31.0636C72.6369 31.1059 72.6966 31.1613 72.7439 31.2266C72.9123 31.4643 76.9427 37.2335 77.3166 57.8025C77.3182 57.8832 77.3039 57.9635 77.2744 58.0387C77.245 58.1138 77.2009 58.1825 77.1448 58.2407C77.0888 58.2989 77.0217 58.3456 76.9476 58.378C76.8734 58.4103 76.7936 58.4278 76.7126 58.4294H76.7003Z" fill="black"/>
<path d="M77.6945 34.5331H77.6123C77.1159 34.4991 76.6487 34.2866 76.2976 33.9349C75.9771 34.1186 75.6154 34.2186 75.2459 34.2258C74.0708 34.2504 72.9369 33.3326 72.5014 31.9969C72.4767 31.9191 72.4678 31.8372 72.4751 31.756C72.4825 31.6748 72.506 31.5959 72.5442 31.5238C72.5824 31.4517 72.6347 31.388 72.6979 31.3362C72.7611 31.2845 72.8339 31.2458 72.9123 31.2224C72.9902 31.1984 73.0722 31.1899 73.1534 31.1975C73.2347 31.2051 73.3136 31.2285 73.3858 31.2666C73.4579 31.3047 73.5218 31.3566 73.5738 31.4193C73.6258 31.482 73.6648 31.5544 73.6888 31.6322C73.9558 32.4517 74.5967 33.0294 75.2376 33.013C75.3517 33.0118 75.4645 32.9896 75.5704 32.9474C75.3042 32.4354 75.1303 31.8806 75.0569 31.3085C74.9665 30.5095 75.1144 29.3991 75.5704 28.85C75.6463 28.7398 75.7442 28.6465 75.8581 28.576C75.9719 28.5055 76.0992 28.4593 76.2319 28.4403C76.3677 28.4283 76.5045 28.4443 76.6339 28.4873C76.7632 28.5303 76.8823 28.5994 76.9837 28.6902C77.5143 29.2185 77.8366 29.9195 77.8917 30.6652C77.948 31.5378 77.7077 32.404 77.2097 33.1236C77.3411 33.2445 77.5084 33.3193 77.6863 33.3367C77.8666 33.3148 78.0394 33.2516 78.1912 33.1521C78.343 33.0526 78.4697 32.9195 78.5614 32.7631C78.2141 32.1329 78.0147 31.4325 77.978 30.7144C77.9369 29.7269 78.2943 28.5755 78.7996 28.092C78.8887 27.9976 78.9973 27.9238 79.118 27.8756C79.2386 27.8275 79.3683 27.8062 79.4981 27.8134C79.6165 27.8248 79.7313 27.8606 79.8353 27.9184C79.9392 27.9762 80.03 28.0549 80.102 28.1494C80.5622 28.7066 80.706 29.9399 80.6074 30.8168C80.5267 31.4574 80.3407 32.0804 80.0568 32.6606C80.1269 32.7168 80.2135 32.7484 80.3033 32.7508C80.6032 32.7508 81.0798 32.2796 81.3633 31.5215C81.4198 31.3691 81.5344 31.2452 81.6822 31.1768C81.8301 31.1085 81.999 31.1013 82.1521 31.1569C82.2281 31.1843 82.298 31.2264 82.3575 31.2809C82.4171 31.3354 82.4653 31.4011 82.4993 31.4742C82.5333 31.5474 82.5525 31.6265 82.5556 31.7071C82.5588 31.7876 82.5459 31.868 82.5178 31.9436C82.0617 33.1974 81.2195 33.9923 80.3239 33.9923C79.9875 33.996 79.6584 33.8942 79.383 33.7013C79.1789 33.9538 78.9221 34.1589 78.6305 34.3026C78.339 34.4462 78.0196 34.5248 77.6945 34.5331ZM76.3798 29.8908C76.2602 30.3015 76.2211 30.7314 76.2648 31.1569C76.2966 31.4128 76.3573 31.6643 76.4455 31.9067C76.5985 31.5428 76.6673 31.1493 76.6468 30.7553C76.6158 30.4524 76.525 30.1586 76.3798 29.8908ZM79.3337 29.5958C79.2292 29.9339 79.182 30.287 79.1941 30.6406C79.2028 30.8213 79.2276 31.001 79.268 31.1774C79.3083 31.0084 79.3399 30.8374 79.3625 30.6652C79.3991 30.309 79.3894 29.9495 79.3337 29.5958Z" fill="black"/>
<path d="M83.73 21.6016C84.3504 22.1999 85.0447 22.712 85.6405 23.3389C86.2679 24.0335 86.8342 24.7806 87.3331 25.572C87.841 26.3189 88.2744 27.1135 88.6273 27.9444C88.7669 28.3355 88.8862 28.7335 88.9847 29.1368C89.1532 29.7432 89.4366 31.1118 90.2583 31.1855C90.7144 31.2142 91.043 30.7512 91.2526 30.4111C91.6077 29.8001 91.8106 29.1129 91.8442 28.4075C91.9118 26.9374 91.6229 25.4728 91.002 24.1379C90.4036 22.7453 89.5573 21.4723 88.504 20.3806C88.0595 19.924 87.571 19.5123 87.0455 19.1513L86.9962 19.1145C86.38 18.6515 85.7021 18.1721 84.9133 18.1106C84.2968 18.0559 83.6827 18.2376 83.1959 18.6187C82.0497 19.5283 82.9001 20.8149 83.73 21.6016Z" fill="#84D2D8"/>
<path d="M82.0367 18.4754C82.1632 18.1579 82.208 17.8138 82.1671 17.4746C82.1262 17.1354 82.0009 16.8118 81.8025 16.5332C81.7993 16.5156 81.7923 16.4988 81.782 16.484C81.6248 16.2237 81.3924 16.0167 81.1153 15.8904C80.8381 15.764 80.5291 15.7242 80.2289 15.776C79.9286 15.8278 79.651 15.9689 79.4326 16.1808C79.2141 16.3927 79.065 16.6655 79.0047 16.9634C78.7335 18.3934 81.252 20.0939 82.0367 18.4754Z" fill="#84D2D8"/>
<path d="M83.5737 46.7681C83.4536 46.768 83.336 46.7331 83.2353 46.6677C83.1347 46.6022 83.0553 46.5089 83.0067 46.3993C82.9734 46.3246 82.9552 46.244 82.9533 46.1622C82.9514 46.0805 82.9657 45.9991 82.9955 45.9229C83.0253 45.8467 83.07 45.7772 83.1269 45.7183C83.1838 45.6594 83.2519 45.6123 83.3272 45.5798C85.1692 44.7808 86.8309 43.6197 88.213 42.166C89.5952 40.7122 90.6694 38.9957 91.3715 37.1187C91.4287 36.966 91.5444 36.8422 91.6931 36.7746C91.8418 36.707 92.0113 36.7011 92.1644 36.7581C92.3175 36.8152 92.4416 36.9305 92.5094 37.0788C92.5772 37.2271 92.5832 37.3962 92.526 37.5489C91.7648 39.5807 90.6014 41.439 89.105 43.013C87.6087 44.587 85.81 45.8445 83.8161 46.7107C83.74 46.7459 83.6576 46.7654 83.5737 46.7681Z" fill="black"/>
<path d="M66.0022 43.027C65.9171 43.0265 65.833 43.0084 65.7552 42.9738C65.6774 42.9392 65.6076 42.889 65.5503 42.8262C62.8216 39.8672 61.3094 35.9923 61.3145 31.9721C61.3074 28.9576 62.1554 26.0026 63.7606 23.4484C65.3658 20.8941 67.6626 18.8447 70.3859 17.5369C70.5325 17.4662 70.7013 17.4562 70.8552 17.5092C71.0092 17.5622 71.1359 17.6738 71.2076 17.8196C71.2433 17.8919 71.2642 17.9706 71.2693 18.051C71.2743 18.1315 71.2634 18.2121 71.237 18.2883C71.2107 18.3645 71.1694 18.4347 71.1157 18.4949C71.062 18.5551 70.9969 18.6041 70.9241 18.6391C68.4059 19.8476 66.2824 21.743 64.7998 24.1056C63.3172 26.4682 62.5361 29.2014 62.547 31.9885C62.5433 35.7005 63.9395 39.278 66.4583 42.0108C66.5133 42.0703 66.5559 42.14 66.5837 42.2161C66.6114 42.2921 66.6238 42.3729 66.6199 42.4537C66.6161 42.5345 66.5962 42.6138 66.5614 42.6869C66.5266 42.76 66.4776 42.8254 66.4172 42.8795C66.3028 42.9797 66.1544 43.0325 66.0022 43.027Z" fill="black"/>
<path d="M75.0566 64.9568C73.9737 64.9627 72.8918 64.8915 71.8191 64.7438C71.6579 64.7176 71.5137 64.6287 71.4181 64.4966C71.3226 64.3644 71.2836 64.1998 71.3097 64.039C71.3222 63.959 71.3504 63.8823 71.3927 63.8132C71.435 63.7442 71.4906 63.6841 71.5563 63.6365C71.6219 63.5889 71.6964 63.5547 71.7753 63.5359C71.8543 63.5171 71.9362 63.514 72.0163 63.5268C72.0779 63.5268 78.2611 64.4856 83.3268 62.0518C83.474 61.9813 83.6431 61.9719 83.7971 62.0257C83.9512 62.0795 84.0776 62.192 84.1485 62.3386C84.2192 62.4853 84.2286 62.654 84.1746 62.8076C84.1207 62.9613 84.0079 63.0873 83.8609 63.1581C80.8043 64.629 77.4477 64.9568 75.0566 64.9568Z" fill="white"/>
<path d="M75.7926 68.3452C74.997 68.3501 74.202 68.298 73.4138 68.1895C73.2526 68.1634 73.1084 68.0744 73.0128 67.9423C72.9173 67.8101 72.8783 67.6456 72.9044 67.4848C72.9169 67.4048 72.9451 67.328 72.9874 67.259C73.0298 67.1899 73.0853 67.1298 73.151 67.0822C73.2167 67.0346 73.2911 67.0005 73.3701 66.9817C73.449 66.9628 73.5309 66.9598 73.611 66.9726C73.6521 66.9726 78.1016 67.6609 81.7334 65.9154C81.8062 65.88 81.8852 65.8593 81.9661 65.8546C82.0469 65.8498 82.1279 65.8611 82.2043 65.8878C82.2807 65.9145 82.3511 65.956 82.4113 66.01C82.4715 66.064 82.5204 66.1293 82.5551 66.2023C82.5906 66.2748 82.6114 66.3537 82.6161 66.4343C82.6209 66.5149 82.6096 66.5957 82.5828 66.6719C82.5561 66.7481 82.5144 66.8183 82.4603 66.8783C82.4062 66.9384 82.3407 66.9871 82.2675 67.0218C80.2327 67.9312 78.0221 68.383 75.7926 68.3452Z" fill="white"/>
<path d="M139.239 26.7073C139.124 26.7075 139.012 26.6763 138.914 26.6172C138.845 26.5745 138.785 26.5186 138.738 26.4529C138.691 26.3871 138.657 26.3127 138.639 26.2339C138.621 26.1551 138.618 26.0735 138.631 25.9937C138.645 25.9139 138.674 25.8375 138.717 25.769L139.867 23.9169C139.953 23.7786 140.09 23.6798 140.249 23.6422C140.408 23.6045 140.575 23.6311 140.714 23.7161C140.853 23.8024 140.952 23.94 140.989 24.0989C141.027 24.2578 141 24.4251 140.915 24.5643L139.765 26.4164C139.709 26.5056 139.632 26.5792 139.54 26.6302C139.448 26.6811 139.344 26.7076 139.239 26.7073Z" fill="black"/>
<path d="M135.217 33.1934C135.102 33.194 134.99 33.1628 134.892 33.1032C134.753 33.0169 134.654 32.8794 134.616 32.7205C134.579 32.5616 134.605 32.3943 134.691 32.2551L135.841 30.403C135.928 30.2653 136.066 30.1671 136.225 30.1295C136.384 30.092 136.552 30.1181 136.692 30.2023C136.761 30.2449 136.82 30.3008 136.868 30.3665C136.915 30.4323 136.948 30.5067 136.967 30.5855C136.985 30.6643 136.988 30.746 136.974 30.8257C136.961 30.9055 136.932 30.9818 136.889 31.0504L135.738 32.9025C135.684 32.9917 135.607 33.0653 135.516 33.1163C135.424 33.1673 135.321 33.1938 135.217 33.1934Z" fill="black"/>
<path d="M135.533 27.5797C135.417 27.5808 135.302 27.548 135.204 27.4855L133.388 26.33C133.32 26.287 133.26 26.2309 133.214 26.1649C133.167 26.0988 133.134 26.0242 133.116 25.9453C133.099 25.8664 133.097 25.7848 133.111 25.7052C133.125 25.6257 133.155 25.5497 133.199 25.4818C133.242 25.4134 133.299 25.3541 133.365 25.3075C133.431 25.2609 133.506 25.2279 133.585 25.2103C133.664 25.1928 133.746 25.1911 133.826 25.2054C133.906 25.2196 133.982 25.2495 134.05 25.2934L135.866 26.4488C136.004 26.5363 136.101 26.6748 136.136 26.8339C136.172 26.9929 136.142 27.1595 136.055 27.2969C135.999 27.3841 135.921 27.4557 135.83 27.5051C135.739 27.5545 135.637 27.5802 135.533 27.5797Z" fill="black"/>
<path d="M141.889 31.624C141.771 31.6237 141.655 31.5896 141.556 31.5257L139.74 30.3702C139.603 30.2827 139.505 30.1442 139.47 29.9852C139.434 29.8261 139.464 29.6595 139.551 29.522C139.64 29.3844 139.779 29.2872 139.94 29.2519C140.1 29.2166 140.267 29.246 140.406 29.3336L142.218 30.489C142.286 30.532 142.346 30.5881 142.392 30.6541C142.439 30.7202 142.472 30.7948 142.49 30.8737C142.507 30.9526 142.509 31.0342 142.495 31.1138C142.481 31.1934 142.451 31.2693 142.407 31.3372C142.352 31.4248 142.275 31.497 142.185 31.5472C142.094 31.5974 141.993 31.6238 141.889 31.624Z" fill="black"/>
<path d="M291.641 50.3164C291.48 50.3164 291.325 50.2533 291.21 50.1407C291.094 50.0281 291.028 49.8749 291.025 49.7141L290.98 47.5342C290.976 47.3719 291.038 47.2149 291.15 47.0974C291.262 46.98 291.417 46.9116 291.579 46.9074C291.743 46.904 291.902 46.9655 292.02 47.0784C292.139 47.1912 292.208 47.3463 292.212 47.5097L292.257 49.6895C292.259 49.7702 292.245 49.8505 292.215 49.9257C292.186 50.0008 292.142 50.0695 292.086 50.1277C292.029 50.1859 291.962 50.2326 291.888 50.2649C291.814 50.2973 291.734 50.3148 291.653 50.3164H291.641Z" fill="black"/>
<path d="M291.805 57.9584C291.645 57.9585 291.49 57.896 291.375 57.7842C291.26 57.6725 291.193 57.5203 291.189 57.3602L291.144 55.1804C291.142 55.0998 291.155 55.0197 291.184 54.9445C291.213 54.8694 291.257 54.8006 291.313 54.7424C291.369 54.6841 291.435 54.6374 291.509 54.605C291.583 54.5725 291.663 54.555 291.744 54.5534C291.825 54.5513 291.905 54.565 291.981 54.5939C292.056 54.6228 292.125 54.6662 292.184 54.7218C292.243 54.7774 292.29 54.8439 292.323 54.9177C292.356 54.9914 292.374 55.071 292.376 55.1517L292.421 57.3315C292.423 57.4122 292.409 57.4925 292.379 57.5677C292.35 57.6429 292.306 57.7116 292.25 57.7698C292.194 57.828 292.127 57.8746 292.052 57.907C291.978 57.9393 291.898 57.9568 291.818 57.9584H291.805Z" fill="black"/>
<path d="M286.855 53.0945C286.692 53.0945 286.536 53.0303 286.42 52.9159C286.305 52.8015 286.239 52.6463 286.238 52.484C286.238 52.4033 286.253 52.3232 286.284 52.2484C286.314 52.1737 286.359 52.1056 286.416 52.0482C286.473 51.9907 286.54 51.9449 286.615 51.9136C286.689 51.8822 286.77 51.8658 286.85 51.8652H289.003C289.084 51.8647 289.164 51.8801 289.239 51.9105C289.313 51.941 289.381 51.9859 289.439 52.0426C289.496 52.0994 289.541 52.1668 289.572 52.2412C289.603 52.3155 289.619 52.3952 289.619 52.4758C289.62 52.5565 289.605 52.6365 289.574 52.7113C289.544 52.7861 289.499 52.8541 289.442 52.9116C289.385 52.969 289.317 53.0147 289.243 53.0461C289.168 53.0775 289.088 53.0939 289.007 53.0945H286.855Z" fill="black"/>
<path d="M294.39 53.0373C294.227 53.0373 294.072 52.973 293.957 52.8585C293.842 52.744 293.777 52.5887 293.777 52.4268C293.776 52.3462 293.79 52.266 293.82 52.191C293.85 52.116 293.895 52.0476 293.951 51.99C294.008 51.9324 294.075 51.8867 294.15 51.8554C294.225 51.8242 294.305 51.8081 294.386 51.8081L296.538 51.7876C296.701 51.7887 296.856 51.8532 296.971 51.9674C297.087 52.0815 297.152 52.2361 297.155 52.3981C297.155 52.4788 297.14 52.5589 297.109 52.6336C297.079 52.7084 297.034 52.7765 296.977 52.8339C296.92 52.8914 296.853 52.9371 296.778 52.9685C296.703 52.9999 296.623 53.0163 296.542 53.0168L294.39 53.0373Z" fill="black"/>
<path d="M113.59 45.7686C113.107 45.7675 112.628 45.6772 112.177 45.5023C111.684 45.3111 111.233 45.0233 110.853 44.656C110.473 44.2887 110.17 43.8492 109.963 43.3634C109.541 42.3925 109.517 41.2956 109.895 40.3071C110.274 39.3187 111.025 38.5171 111.988 38.0736C112.46 37.8604 112.97 37.7437 113.488 37.7303C114.006 37.7169 114.521 37.8072 115.004 37.9958C115.498 38.1862 115.948 38.4736 116.329 38.841C116.709 39.2084 117.012 39.6483 117.218 40.1346C117.64 41.106 117.663 42.2033 117.284 43.1919C116.905 44.1804 116.153 44.9817 115.189 45.4244C114.686 45.6509 114.142 45.7682 113.59 45.7686ZM112.493 39.1922C111.824 39.503 111.302 40.0626 111.04 40.7517C110.779 41.4407 110.797 42.2044 111.092 42.8799C111.236 43.2154 111.445 43.5191 111.707 43.7731C111.97 44.0271 112.28 44.2263 112.621 44.3591C112.949 44.4875 113.3 44.549 113.653 44.5398C114.006 44.5307 114.354 44.4511 114.675 44.3058C115.346 43.9966 115.869 43.4371 116.131 42.7475C116.393 42.0579 116.373 41.2933 116.076 40.6181C115.933 40.2822 115.725 39.9782 115.462 39.7241C115.2 39.4701 114.889 39.2711 114.548 39.1389C114.219 39.0116 113.868 38.9508 113.515 38.96C113.163 38.9691 112.815 39.048 112.493 39.1922Z" fill="black"/>
<path d="M25.2422 223.162C24.5787 223.161 23.9213 223.038 23.303 222.798C22.6252 222.535 22.007 222.14 21.4848 221.636C20.9626 221.131 20.5471 220.527 20.2627 219.86C19.6834 218.527 19.65 217.02 20.1698 215.663C20.6895 214.305 21.7212 213.204 23.0442 212.595C23.6873 212.305 24.382 212.147 25.0876 212.128C25.7931 212.11 26.4952 212.232 27.1526 212.489C27.8302 212.75 28.4484 213.145 28.9706 213.648C29.4928 214.152 29.9084 214.756 30.1928 215.422C30.7721 216.757 30.805 218.264 30.2845 219.623C29.7639 220.981 28.7313 222.082 27.4073 222.691C26.7269 222.998 25.9891 223.159 25.2422 223.162ZM23.5495 213.714C22.5199 214.19 21.7181 215.049 21.3157 216.107C20.9134 217.166 20.9424 218.339 21.3967 219.376C21.6157 219.893 21.9366 220.361 22.3402 220.751C22.7439 221.142 23.2222 221.448 23.7467 221.65C24.2556 221.848 24.7989 221.943 25.3449 221.929C25.8909 221.915 26.4287 221.792 26.9266 221.569C27.9559 221.093 28.7579 220.235 29.161 219.178C29.5641 218.12 29.5363 216.947 29.0836 215.91C28.8634 215.394 28.5422 214.926 28.1387 214.535C27.7351 214.144 27.2574 213.837 26.7335 213.632C26.2241 213.433 25.68 213.338 25.1332 213.353C24.5865 213.367 24.048 213.489 23.5495 213.714Z" fill="black"/>
<path d="M199.999 112.032C199.845 112.027 199.699 111.966 199.588 111.86C199.473 111.744 199.409 111.588 199.409 111.426C199.409 111.263 199.473 111.107 199.588 110.991L201.1 109.418C201.157 109.36 201.224 109.315 201.299 109.284C201.374 109.252 201.454 109.236 201.535 109.236C201.616 109.236 201.696 109.252 201.771 109.284C201.846 109.315 201.914 109.36 201.971 109.418C202.028 109.475 202.074 109.542 202.105 109.617C202.136 109.691 202.153 109.771 202.153 109.852C202.153 109.933 202.136 110.013 202.105 110.087C202.074 110.162 202.028 110.23 201.971 110.286L200.463 111.86C200.402 111.919 200.329 111.965 200.249 111.994C200.169 112.024 200.084 112.037 199.999 112.032Z" fill="black"/>
<path d="M194.707 117.539C194.554 117.537 194.407 117.477 194.296 117.371C194.181 117.256 194.116 117.1 194.116 116.937C194.116 116.774 194.181 116.618 194.296 116.502L195.808 114.929C195.921 114.811 196.076 114.743 196.24 114.739C196.403 114.735 196.561 114.796 196.679 114.909C196.797 115.021 196.866 115.176 196.87 115.339C196.874 115.501 196.813 115.659 196.7 115.777L195.151 117.351C195.094 117.41 195.025 117.458 194.948 117.49C194.872 117.522 194.79 117.539 194.707 117.539Z" fill="black"/>
<path d="M196.19 112.118C196.036 112.112 195.89 112.049 195.779 111.942L194.247 110.434C194.131 110.319 194.066 110.163 194.066 110C194.066 109.837 194.131 109.681 194.247 109.565C194.362 109.45 194.519 109.386 194.682 109.386C194.845 109.386 195.002 109.45 195.118 109.565L196.654 111.073C196.77 111.189 196.834 111.345 196.834 111.508C196.834 111.671 196.77 111.827 196.654 111.942C196.594 112.002 196.521 112.049 196.441 112.08C196.361 112.11 196.275 112.123 196.19 112.118Z" fill="black"/>
<path d="M201.564 117.387C201.402 117.387 201.245 117.324 201.129 117.211L199.596 115.707C199.481 115.592 199.416 115.436 199.416 115.273C199.416 115.11 199.481 114.954 199.596 114.839C199.653 114.781 199.721 114.736 199.796 114.704C199.87 114.673 199.951 114.657 200.032 114.657C200.113 114.657 200.193 114.673 200.268 114.704C200.342 114.736 200.41 114.781 200.467 114.839L202.004 116.347C202.119 116.462 202.184 116.618 202.184 116.781C202.184 116.944 202.119 117.1 202.004 117.215C201.885 117.327 201.727 117.388 201.564 117.387Z" fill="black"/>
<path d="M12.6952 189.359C12.5393 189.358 12.3895 189.298 12.276 189.192C12.1624 189.086 12.0934 188.94 12.083 188.785C12.083 188.588 10.908 168.867 16.1915 144.017C19.2851 129.417 23.9605 115.921 30.0862 103.907C37.7525 88.8693 47.7237 76.1223 59.7203 66.0139C59.782 65.9613 59.8535 65.9212 59.9308 65.8962C60.008 65.8712 60.0894 65.8617 60.1703 65.8682C60.2513 65.8747 60.3302 65.897 60.4024 65.934C60.4746 65.9709 60.5388 66.0218 60.5913 66.0836C60.6964 66.2088 60.7477 66.3703 60.7338 66.5331C60.7199 66.6958 60.6421 66.8465 60.5174 66.9522C33.6318 89.6028 22.2309 121.485 17.4035 144.238C12.1652 168.933 13.3156 188.515 13.3279 188.707C13.338 188.87 13.2832 189.029 13.1753 189.151C13.0675 189.274 12.9155 189.348 12.7527 189.359H12.6952Z" fill="white"/>
<path d="M9.17433 96.4615C9.07998 96.4617 8.98698 96.4392 8.90319 96.396C8.75767 96.3237 8.64666 96.1971 8.59433 96.0436C8.542 95.8901 8.55259 95.7222 8.62381 95.5765C8.80047 95.22 26.5653 59.8019 48.7262 45.3584C48.8637 45.2701 49.0307 45.2394 49.1907 45.2732C49.3508 45.3069 49.4909 45.4024 49.5808 45.5387C49.6252 45.6064 49.6558 45.6823 49.6707 45.7618C49.6857 45.8414 49.6847 45.9231 49.6679 46.0023C49.6511 46.0815 49.6188 46.1566 49.5728 46.2233C49.5269 46.29 49.4681 46.347 49.4 46.391C27.5144 60.6459 9.90564 95.7691 9.72898 96.1214C9.67758 96.2241 9.59839 96.3104 9.50037 96.3705C9.40235 96.4306 9.2894 96.4621 9.17433 96.4615Z" fill="black"/>
<path d="M294.39 287.557C294.255 287.557 294.124 287.512 294.017 287.43C293.91 287.348 293.833 287.233 293.799 287.102C293.778 287.024 293.772 286.943 293.783 286.863C293.793 286.783 293.819 286.705 293.86 286.635C293.9 286.565 293.954 286.504 294.018 286.455C294.083 286.405 294.156 286.369 294.234 286.348C312.665 281.432 323.975 268.037 327.845 246.567C330.746 230.488 328.145 215.692 328.12 215.545C328.106 215.466 328.107 215.384 328.124 215.305C328.141 215.226 328.174 215.151 328.22 215.085C328.266 215.019 328.325 214.962 328.393 214.919C328.462 214.875 328.538 214.846 328.618 214.832C328.697 214.817 328.779 214.818 328.858 214.835C328.937 214.852 329.012 214.885 329.079 214.931C329.145 214.977 329.202 215.036 329.246 215.104C329.289 215.172 329.319 215.248 329.332 215.328C329.361 215.475 331.999 230.488 329.061 246.784C327.328 256.38 324.033 264.546 319.259 271.053C313.281 279.207 304.965 284.755 294.551 287.537C294.498 287.55 294.444 287.556 294.39 287.557Z" fill="white"/>
<path d="M335.659 247.181H335.557C335.477 247.168 335.4 247.139 335.332 247.096C335.263 247.053 335.203 246.997 335.157 246.932C335.11 246.866 335.076 246.791 335.058 246.713C335.04 246.634 335.038 246.552 335.051 246.473C340.207 216.451 327.566 190.498 327.438 190.24C327.367 190.094 327.356 189.926 327.409 189.772C327.461 189.619 327.572 189.492 327.718 189.42C327.864 189.349 328.032 189.338 328.186 189.391C328.34 189.443 328.467 189.554 328.539 189.699C328.667 189.961 341.485 216.275 336.263 246.682C336.236 246.822 336.161 246.948 336.051 247.039C335.94 247.13 335.802 247.18 335.659 247.181Z" fill="white"/>
<path d="M242.056 305.558H274.443C274.443 305.558 278.88 332.486 259.558 334.649C240.236 336.813 242.056 305.558 242.056 305.558Z" fill="white"/>
<path d="M257.694 335.354C254.335 335.427 251.084 334.169 248.655 331.855C240.438 324.09 241.395 306.275 241.441 305.521C241.45 305.364 241.519 305.217 241.634 305.11C241.748 305.002 241.9 304.943 242.057 304.943H274.444C274.59 304.943 274.732 304.995 274.843 305.089C274.954 305.184 275.028 305.315 275.052 305.459C275.15 306.066 277.435 320.476 270.857 329.138C268.178 332.658 264.403 334.715 259.625 335.243C258.984 335.316 258.339 335.353 257.694 335.354ZM242.649 306.172C242.558 309.311 242.513 324.348 249.506 330.966C252.123 333.424 255.479 334.469 259.481 334.022C263.91 333.531 267.402 331.638 269.863 328.397C275.454 321.021 274.242 308.819 273.897 306.172H242.649Z" fill="black"/>
<path d="M251.765 298.973C249.452 299.038 244.518 299.116 239.879 295.961C238.158 294.793 233.445 291.589 233.885 287.356C234.263 283.743 238.322 280.415 243.832 279.817C237.295 280.592 232.036 275.72 232.028 270.655C232.028 266.791 235.097 262.952 239.641 261.682C232.599 256.355 228.897 247.816 230.068 239.322C231.206 231.066 236.942 222.933 245.598 220.425C246.687 220.109 256.091 217.536 262.854 223.293C268.54 228.128 268.605 235.622 268.646 240.732C268.72 249.824 265.064 256.732 262.854 260.199C263.314 260.17 267.989 258.638 272.36 262.506C276.814 266.451 277.032 275.519 274.863 279.108C272.591 282.866 267.118 282.071 266.144 282.345C270.253 285.951 270.093 288.954 270.047 289.52C269.6 295.408 258.934 298.764 251.765 298.973Z" fill="#84D2D8"/>
<path d="M254.107 303.169H254.021C253.94 303.158 253.862 303.132 253.791 303.091C253.721 303.05 253.659 302.996 253.61 302.931C253.561 302.866 253.525 302.792 253.504 302.713C253.484 302.635 253.479 302.553 253.491 302.472C257.599 272.086 247.977 237.811 247.879 237.466C247.833 237.312 247.85 237.145 247.927 237.003C248.004 236.861 248.134 236.755 248.29 236.708C248.445 236.664 248.613 236.681 248.755 236.758C248.898 236.834 249.005 236.964 249.054 237.118C249.152 237.462 258.861 271.987 254.699 302.624C254.682 302.77 254.613 302.906 254.504 303.006C254.396 303.106 254.255 303.164 254.107 303.169Z" fill="white"/>
<path d="M258.766 300.374C258.03 298.584 254.846 290.295 258.975 283.313C259.826 281.879 262.673 277.076 266.781 277.416C269.858 277.67 271.798 280.629 272.225 281.317C270.992 276.81 273.211 272.25 276.921 270.664C281.304 268.8 287.134 271.377 288.749 276.773C289.834 276.466 292.759 275.802 295.733 277.183C299.628 279.014 301.97 283.653 301.436 288.766C299.817 294.249 294.792 297.604 290.031 296.961C284.858 296.281 282.389 291.225 282.225 290.852C283.046 292.118 284.217 294.466 283.494 296.748C282.262 300.587 276.222 302.484 271.876 301.382C267.845 300.358 266.674 297.088 263.429 297.383C261.272 297.621 259.686 299.227 258.766 300.374Z" fill="#FFD600"/>
<path d="M258.441 302.82H258.334C258.173 302.791 258.03 302.7 257.937 302.567C257.843 302.433 257.806 302.268 257.833 302.107C257.928 301.583 260.241 289.25 271.802 284.869C280.097 281.723 287.545 284.869 289.632 285.906C289.777 285.979 289.887 286.106 289.939 286.259C289.99 286.413 289.979 286.58 289.908 286.725C289.834 286.87 289.707 286.98 289.553 287.031C289.399 287.083 289.232 287.071 289.086 287C287.114 286.021 280.072 283.046 272.241 286.017C261.338 290.151 259.148 301.82 259.061 302.316C259.035 302.46 258.958 302.59 258.844 302.682C258.731 302.775 258.588 302.824 258.441 302.82Z" fill="#84D2D8"/>
<path d="M266.51 88.7132C266.51 88.0617 266.387 87.484 266.334 86.9391C266.277 86.2426 266.139 85.5551 265.923 84.8903C265.586 83.8632 265.039 82.9171 264.316 82.1123C263.252 81.0566 261.903 80.3308 260.434 80.0226C257.357 79.2687 254.049 79.6784 250.984 80.293L250.496 80.3955C251.408 79.8874 252.299 79.3506 253.17 78.7565C255.956 76.9168 258.737 74.6058 260.027 71.4426C261.128 68.7424 260.105 65.7636 258.285 63.6575C257.683 62.9654 256.959 62.3891 256.149 61.9571C255.669 61.7088 255.163 61.5136 254.641 61.3752C254.327 61.2961 254.007 61.2413 253.684 61.2113C253.651 61.2113 253.236 61.0925 253.466 61.1744C253.33 61.1253 253.187 61.0884 253.055 61.0515C251.387 60.6579 249.636 60.828 248.076 61.535C247.608 60.2858 246.875 59.1522 245.927 58.212C245.04 57.363 243.947 56.7586 242.755 56.4583C242.397 56.374 242.033 56.3138 241.667 56.278H241.564C241.564 56.278 241.564 56.278 241.42 56.2166C241.276 56.1551 241.128 56.1387 240.98 56.1059C240.296 55.9561 239.593 55.8995 238.893 55.9379C236.872 56.0445 234.666 56.864 233.322 58.4292C232.355 59.6063 231.725 61.0219 231.498 62.5266C231.013 65.3211 231.354 68.1974 231.909 70.955C232.043 71.6133 232.195 72.2689 232.365 72.9218C231.618 71.3857 230.762 69.9042 229.805 68.4883C228.084 65.9643 225.672 63.1617 222.497 62.5553C220.892 62.3067 219.251 62.5691 217.805 63.3051C217.064 63.6051 216.343 63.9527 215.648 64.3458C214.897 64.8142 214.234 65.409 213.688 66.1037C213.068 66.9111 212.621 67.8366 212.373 68.8233C212.126 69.8099 212.084 70.8366 212.25 71.8401C212.384 72.7256 212.631 73.5904 212.986 74.4132L212.92 74.4337C212.271 74.6468 211.687 74.9664 211.178 75.1631C210.044 75.5854 209.021 76.2593 208.187 77.1339C206.449 79.0064 206.051 81.6165 206.544 84.0504C206.885 85.8107 207.858 87.3868 209.28 88.4838C210.528 89.3578 211.973 89.9122 213.487 90.0982C217.862 90.7947 222.431 89.9097 226.634 88.7501L227.098 88.619C223.692 90.0736 220.373 91.8723 217.649 94.3554C216.452 95.3899 215.474 96.6519 214.773 98.0676C214.435 98.7862 214.215 99.5539 214.119 100.342C214.087 100.62 214.074 100.901 214.083 101.182C214.083 101.317 214.083 101.452 214.119 101.591C214.156 101.731 214.148 101.821 214.165 101.936C214.132 101.813 214.124 101.825 214.136 101.968C214.146 102.262 214.175 102.555 214.222 102.845C214.654 105.98 217.065 108.909 220.229 109.54C222.177 109.873 224.18 109.586 225.956 108.721C226.034 109.214 226.156 109.7 226.322 110.171C227.012 112.126 228.343 113.859 230.286 114.679C232.55 115.65 235.044 115.42 237.271 114.437C239.037 113.65 240.171 112.142 240.857 110.385C240.976 110.076 241.079 109.761 241.165 109.442C241.504 112.499 241.641 115.574 241.576 118.649C241.541 120.534 241.427 122.416 241.235 124.295C241.237 124.634 241.374 124.959 241.614 125.198C241.855 125.438 242.181 125.573 242.521 125.574C242.86 125.568 243.183 125.432 243.423 125.194C243.663 124.955 243.801 124.633 243.807 124.295C244.59 116.339 244.047 108.309 242.201 100.53C242.683 101.12 243.177 101.698 243.684 102.263C245.006 103.725 246.477 105.046 248.072 106.205C249.289 107.133 250.674 107.819 252.151 108.225C254.789 108.864 257.71 107.561 259.501 105.636C260.172 104.92 260.685 104.074 261.009 103.15C261.333 102.225 261.461 101.244 261.383 100.268C261.338 99.7271 261.28 99.3911 261.239 98.9281C261.187 98.3732 261.083 97.8244 260.927 97.2892C260.829 96.9518 260.711 96.6206 260.574 96.2976C261.562 96.0022 262.498 95.5573 263.351 94.9782C264.36 94.2796 265.177 93.3404 265.729 92.2462C266.281 91.152 266.549 89.9374 266.51 88.7132ZM263.799 90.1842C263.583 91.113 263.06 91.9427 262.315 92.5402L262.135 92.6959C262.217 92.6222 262.007 92.7861 261.983 92.8066C261.781 92.95 261.572 93.0811 261.358 93.2163C261.145 93.3515 260.997 93.413 260.812 93.5031L260.545 93.6261L260.401 93.6834C259.735 93.9355 259.048 94.1248 258.347 94.2488C257.525 94.3964 257.176 95.4781 257.578 96.1337C258.141 96.993 258.512 97.9627 258.667 98.9773C258.668 99.072 258.676 99.1666 258.692 99.26C258.693 99.4768 258.711 99.6932 258.745 99.9074C258.797 100.136 258.827 100.369 258.836 100.604C258.874 101.225 258.781 101.848 258.564 102.431C258.564 102.431 258.491 102.608 258.474 102.649C258.458 102.69 258.396 102.808 258.351 102.89C258.242 103.097 258.12 103.297 257.985 103.489L257.94 103.558C257.927 103.569 257.916 103.581 257.907 103.595C257.833 103.685 257.759 103.771 257.681 103.853C257.505 104.05 257.315 104.235 257.114 104.406L256.905 104.583C257.02 104.488 256.781 104.669 256.757 104.689C256.58 104.816 256.391 104.931 256.202 105.041C256.013 105.152 255.828 105.246 255.635 105.341L255.405 105.447C255.59 105.365 255.241 105.509 255.187 105.529C254.834 105.659 254.469 105.759 254.099 105.828H254.012H253.86C253.715 105.836 253.57 105.836 253.425 105.828L253.141 105.804L252.903 105.754C252.586 105.683 252.274 105.588 251.97 105.472L251.827 105.418L251.757 105.386C251.601 105.316 251.449 105.242 251.293 105.164C250.943 104.988 250.602 104.787 250.265 104.578C249.929 104.369 249.604 104.169 249.284 103.919L249.037 103.734L248.91 103.636C248.729 103.497 248.552 103.353 248.376 103.206C247.419 102.404 246.516 101.54 245.672 100.62C244.75 99.6267 243.888 98.5786 243.092 97.4817C242.235 96.3056 241.445 95.0827 240.726 93.8186C240.356 93.1794 240.011 92.5238 239.682 91.8601C239.518 91.5282 239.362 91.1922 239.206 90.8562C239.049 90.5202 238.906 90.176 238.795 89.8892C238.724 89.6743 238.603 89.4796 238.44 89.3219C238.278 89.1641 238.079 89.0481 237.862 88.9837H237.792C237.676 88.9671 237.559 88.9671 237.443 88.9837H237.406H237.349C237.114 89.0202 236.897 89.1291 236.728 89.2951C236.573 89.4228 236.45 89.5858 236.371 89.7704C236.292 89.955 236.258 90.1559 236.272 90.3563C236.196 90.6963 236.196 91.0489 236.272 91.3889L236.605 92.3477C236.83 93.0196 237.046 93.7025 237.254 94.3964C237.624 95.6256 237.944 96.8548 238.224 98.0841C238.347 98.6413 238.458 99.1985 238.556 99.7599C238.606 100.033 238.651 100.306 238.692 100.579L238.754 100.989C238.754 101.036 238.754 101.068 238.754 101.087C238.754 101.161 238.774 101.231 238.782 101.301C238.918 102.403 238.992 103.513 239.033 104.619C239.033 105.181 239.033 105.746 239.033 106.308C239.033 106.57 239 106.832 238.975 107.098C238.975 107.201 238.976 107.303 238.943 107.41C238.943 107.361 238.897 107.709 238.893 107.75C238.815 108.208 238.709 108.661 238.577 109.106C238.514 109.314 238.444 109.519 238.367 109.721C238.367 109.721 238.33 109.819 238.306 109.872C238.281 109.926 238.211 110.069 238.162 110.167C238.074 110.343 237.976 110.514 237.87 110.68L237.71 110.921L237.653 110.995C237.546 111.126 237.431 111.249 237.312 111.372L237.11 111.556L236.995 111.655C236.672 111.884 236.326 112.08 235.964 112.241H235.931L235.853 112.269L235.524 112.388C235.257 112.478 234.986 112.548 234.703 112.614L234.337 112.687L234.177 112.712H234.049C233.705 112.745 233.359 112.753 233.014 112.736C232.776 112.739 232.538 112.709 232.308 112.646C232.131 112.611 231.957 112.566 231.786 112.511C231.741 112.511 231.4 112.376 231.428 112.392C231.153 112.266 230.888 112.12 230.635 111.954L230.442 111.823C230.549 111.909 230.545 111.905 230.442 111.823C230.34 111.741 230.216 111.626 230.11 111.524C229.947 111.366 229.793 111.199 229.649 111.024C229.715 111.097 229.51 110.827 229.485 110.79C229.407 110.675 229.333 110.557 229.263 110.438C229.144 110.232 229.036 110.02 228.939 109.803L228.914 109.749L228.877 109.655C228.828 109.536 228.787 109.418 228.746 109.295C228.607 108.879 228.497 108.455 228.417 108.024C228.417 107.947 228.359 107.668 228.347 107.615C228.335 107.561 228.347 107.397 228.314 107.287C228.314 107.066 228.314 106.844 228.281 106.627C228.276 106.405 228.215 106.187 228.103 105.994C227.992 105.8 227.834 105.638 227.644 105.521C227.449 105.403 227.224 105.341 226.995 105.341C226.767 105.341 226.542 105.403 226.346 105.521C225.996 105.764 225.63 105.984 225.249 106.176L224.773 106.414L224.625 106.48L224.44 106.558C223.989 106.729 223.526 106.866 223.055 106.967L222.71 107.041L222.476 107.078C222.267 107.078 222.065 107.111 221.843 107.115C221.591 107.12 221.339 107.11 221.087 107.086H221.034L220.911 107.062C220.738 107.029 220.57 106.988 220.401 106.939C219.959 106.825 219.541 106.632 219.169 106.369C219.078 106.312 218.992 106.25 218.906 106.189C219.029 106.275 218.766 106.074 218.754 106.062C218.546 105.88 218.35 105.686 218.166 105.48L217.977 105.259C218.068 105.369 217.879 105.123 217.866 105.103C217.735 104.919 217.616 104.726 217.501 104.529C217.386 104.333 217.291 104.12 217.197 103.939L217.164 103.878V103.853C217.11 103.722 217.065 103.591 217.02 103.443C216.898 103.081 216.805 102.71 216.741 102.333V102.354C216.741 102.272 216.741 102.186 216.741 102.104C216.72 101.694 216.7 101.501 216.683 101.21C216.683 101.071 216.683 100.932 216.683 100.801C216.683 100.739 216.683 100.555 216.712 100.485C216.758 100.231 216.822 99.9809 216.901 99.7353C216.93 99.6411 216.967 99.5468 216.999 99.4567C216.999 99.4854 217.123 99.1863 217.156 99.1207C217.318 98.8024 217.501 98.4945 217.702 98.1988C217.78 98.084 217.858 97.9734 217.94 97.8669L218.203 97.5391C218.47 97.2236 218.758 96.9204 219.054 96.6295C219.35 96.3386 219.658 96.064 219.97 95.81C220.134 95.6666 220.303 95.5314 220.471 95.4002L220.627 95.2773L220.927 95.052C222.674 93.7902 224.535 92.6929 226.486 91.774C227.599 91.2373 228.647 90.7865 229.744 90.3522C230.948 89.8728 232.209 89.5081 233.302 88.8362C234.296 88.2338 235.574 87.4635 235.676 86.1974C235.734 85.4435 235.072 84.9272 234.444 84.706C233.948 84.5723 233.431 84.532 232.92 84.5871C231.879 84.6927 230.85 84.8874 229.842 85.169H229.756C230.044 85.128 229.99 85.1362 229.588 85.169L229.111 85.3328L228.162 85.6402C227.492 85.8532 226.823 86.0499 226.149 86.2384C224.936 86.5826 223.711 86.8789 222.476 87.1275C221.33 87.357 220.29 87.5373 219.313 87.6233C218.31 87.7313 217.301 87.7819 216.293 87.7749C215.857 87.7749 215.418 87.7463 214.982 87.7135C214.773 87.7135 214.571 87.6766 214.362 87.652H214.3L213.914 87.5864C213.544 87.525 213.179 87.4389 212.813 87.3406L212.308 87.1808L212.061 87.0948L211.864 87.0169C211.606 86.8959 211.357 86.7591 211.116 86.6071C210.985 86.5293 210.857 86.4432 210.73 86.3531H210.709L210.525 86.1933C210.398 86.0794 210.277 85.959 210.163 85.8328L210.081 85.7426L209.949 85.5664C209.797 85.3506 209.66 85.1247 209.539 84.8903C209.539 84.8576 209.428 84.6404 209.411 84.6158C209.37 84.5052 209.329 84.3946 209.292 84.2839C209.189 83.9862 209.103 83.6825 209.037 83.3743C209.004 83.2309 208.98 83.0875 208.955 82.9646C208.951 82.8549 208.942 82.7454 208.926 82.6368C208.902 82.2971 208.902 81.9561 208.926 81.6165C208.926 81.5305 208.926 81.4444 208.926 81.3584V81.3133C208.955 81.1412 208.992 80.9732 209.037 80.8011C209.079 80.6306 209.13 80.4624 209.189 80.2971L209.263 80.0964C209.263 80.1292 209.263 80.0964 209.321 79.9816C209.402 79.8175 209.491 79.6575 209.588 79.5022C209.641 79.4203 209.691 79.3383 209.748 79.2605L209.818 79.1622C210.043 78.8916 210.292 78.642 210.562 78.4164L210.619 78.3672L210.82 78.2279C210.96 78.1337 211.108 78.0476 211.256 77.9616C211.404 77.8755 211.548 77.8059 211.7 77.7322L211.872 77.6502L211.95 77.6215C212.361 77.4576 212.772 77.2732 213.183 77.0847C213.831 76.8252 214.508 76.6463 215.2 76.5521C216.022 76.421 216.354 75.3229 215.968 74.6673C215.804 74.3887 215.648 74.1018 215.504 73.8068C215.463 73.7166 215.422 73.6265 215.377 73.5364C215.37 73.5155 215.361 73.495 215.352 73.4749V73.4462C215.249 73.1922 215.159 72.9381 215.073 72.68C214.986 72.4219 214.933 72.2006 214.875 71.9548C214.847 71.8319 214.822 71.7048 214.797 71.5778C214.797 71.5778 214.756 71.291 214.756 71.3197C214.702 70.8199 214.702 70.3157 214.756 69.8159C214.914 68.7874 215.423 67.845 216.198 67.1485C216.293 67.0583 216.391 66.9764 216.49 66.8903L216.552 66.8371C216.579 66.8204 216.606 66.8013 216.63 66.7797C216.833 66.6322 217.045 66.4955 217.262 66.37C217.472 66.2471 217.673 66.1405 217.912 66.0381L217.961 66.0135L218.039 65.9848C218.256 65.9143 218.469 65.8309 218.676 65.7349C219.509 65.2687 220.445 65.0166 221.4 65.0014C221.519 65.0014 221.642 65.0015 221.761 65.026L221.946 65.0588C222.25 65.1226 222.548 65.2117 222.838 65.3251L222.994 65.3989C223.133 65.4645 223.269 65.5382 223.405 65.6119C223.712 65.7844 224.009 65.976 224.292 66.1856L224.386 66.2512L224.51 66.3536C224.649 66.4642 224.785 66.583 224.921 66.7019C225.225 66.9723 225.516 67.2591 225.796 67.5582C226.075 67.8573 226.338 68.1565 226.593 68.4679L226.79 68.7137L226.831 68.7629V68.7915C226.987 68.9964 227.139 69.2013 227.287 69.4103C227.862 70.2297 228.384 71.0492 228.877 71.9179C229.423 72.8685 229.921 73.8519 230.389 74.8476C230.911 75.958 231.28 76.8471 231.724 77.9985C232.197 79.2277 232.62 80.457 233.018 81.6862C233.126 82.1074 233.36 82.486 233.688 82.772C234 83.0463 234.357 83.2653 234.744 83.4194C235.114 83.5605 235.518 83.5894 235.904 83.5027C236.291 83.416 236.643 83.2174 236.917 82.9318C237.338 82.4577 237.622 81.8785 237.739 81.2559C237.805 80.8043 237.713 80.3437 237.476 79.9529C237.324 79.5924 237.176 79.2318 237.032 78.8671C236.539 77.6325 236.086 76.3841 235.672 75.1221C234.936 72.9196 234.386 70.6595 234.029 68.3654C234.029 68.3654 234.004 68.2015 233.996 68.1442C233.988 68.0868 233.971 67.9516 233.963 67.8574C233.934 67.6197 233.91 67.3861 233.889 67.1485C233.844 66.6609 233.819 66.1692 233.807 65.6816C233.807 65.2719 233.807 64.8376 233.807 64.4155C233.807 64.2148 233.832 64.0057 233.848 63.8173C233.848 63.7189 233.848 63.6206 233.877 63.5264V63.4321V63.3953C233.977 62.7267 234.146 62.0703 234.382 61.4367C234.382 61.4121 234.501 61.1581 234.534 61.0925C234.6 60.9573 234.678 60.8221 234.756 60.6828C234.834 60.5435 234.916 60.4287 235.003 60.3058C235.009 60.2926 235.018 60.2802 235.027 60.2689C235.072 60.2116 235.118 60.1624 235.167 60.1091C235.262 60.0017 235.362 59.8992 235.467 59.8018C235.512 59.7608 235.726 59.5887 235.722 59.5846C235.878 59.474 236.038 59.3757 236.198 59.2814C236.358 59.1872 236.408 59.1667 236.515 59.1134C236.547 59.1134 236.888 58.9413 236.819 58.9659C237.798 58.5372 238.875 58.3774 239.937 58.5029H240.081C240.229 58.5316 240.372 58.5644 240.52 58.6013C240.822 58.694 241.131 58.7585 241.445 58.7938C241.879 58.8529 242.305 58.963 242.714 59.1216L242.817 59.1667L243.15 59.3388C243.327 59.4389 243.498 59.5483 243.663 59.6666L243.708 59.6994C243.791 59.7649 243.873 59.8387 243.955 59.9125C244.126 60.0671 244.288 60.2312 244.44 60.4041L244.588 60.5803L244.616 60.6131L244.662 60.6746C244.768 60.8221 244.871 60.9778 244.966 61.1335C245.153 61.4346 245.321 61.7466 245.471 62.0677L245.496 62.1332C245.496 62.1332 245.561 62.2849 245.578 62.3176C245.635 62.4652 245.689 62.6167 245.738 62.7643C245.841 63.0593 245.927 63.3584 246.001 63.6616C246.055 63.8498 246.152 64.0232 246.283 64.1688C246.415 64.3144 246.577 64.4284 246.759 64.5022C246.941 64.5759 247.138 64.6076 247.334 64.5947C247.53 64.5818 247.72 64.5247 247.891 64.4278C248.088 64.309 248.302 64.1983 248.491 64.0918L248.823 63.9279L249.058 63.8296C249.288 63.7394 249.522 63.6616 249.756 63.5919C249.892 63.551 250.027 63.5182 250.167 63.4854L250.446 63.428C250.606 63.4034 250.635 63.3993 250.533 63.428C251.071 63.3555 251.618 63.3707 252.151 63.4731C252.486 63.5796 252.828 63.6617 253.174 63.7189C253.473 63.739 253.77 63.7912 254.058 63.8746C254.185 63.9115 254.316 63.9566 254.444 64.0017L254.514 64.0262L254.579 64.0549C254.792 64.1564 254.999 64.2685 255.2 64.3909C255.298 64.4524 255.397 64.5179 255.491 64.5876L255.549 64.6245L255.598 64.6655C255.802 64.835 255.997 65.0155 256.182 65.2063C256.313 65.3415 256.432 65.4849 256.551 65.616L256.687 65.7964C256.749 65.8824 256.81 65.9766 256.868 66.0667C256.987 66.247 257.094 66.4356 257.196 66.624C257.246 66.7183 257.291 66.8125 257.336 66.9067C257.381 67.001 257.435 67.1198 257.455 67.169C257.584 67.4927 257.688 67.8255 257.767 68.1647C257.796 68.2835 257.821 68.4023 257.841 68.5252C257.841 68.4719 257.866 68.812 257.87 68.8981C257.874 68.9841 257.87 69.1644 257.87 69.3078C257.87 69.3611 257.87 69.5045 257.841 69.5824C257.799 69.8238 257.74 70.062 257.665 70.2953C257.624 70.4305 257.574 70.5657 257.525 70.7051V70.7296C257.525 70.7788 257.484 70.8239 257.459 70.8731C257.316 71.1761 257.154 71.4703 256.975 71.754C256.823 71.9998 256.654 72.2375 256.482 72.471C256.506 72.4341 256.272 72.7292 256.227 72.7865C256.091 72.9504 255.947 73.1061 255.816 73.2619C255.256 73.8666 254.656 74.4333 254.021 74.9582L253.523 75.3679L253.384 75.4745L253.17 75.6343C252.759 75.9334 252.348 76.2202 251.938 76.4947C250.122 77.6937 248.219 78.7538 246.243 79.6661C245.126 80.1947 244.127 80.6249 243.026 81.0634C242.451 81.2928 241.868 81.5141 241.284 81.7312L240.389 82.0549C239.966 82.1671 239.553 82.3166 239.156 82.5016C238.372 82.9605 238.199 84.2757 238.692 84.9969C239.185 85.718 239.875 85.8614 240.648 85.8901C242.024 85.9393 243.281 85.2509 244.547 84.792C246.897 83.9323 249.309 83.2475 251.761 82.7433C253.657 82.3277 255.597 82.1501 257.537 82.2147C257.907 82.2147 258.273 82.2598 258.638 82.3008L259.074 82.3663C259.288 82.4032 259.485 82.4483 259.703 82.4975C260.041 82.5785 260.374 82.6783 260.701 82.7966L260.882 82.8662H260.927C261.095 82.944 261.26 83.0301 261.42 83.1162C261.58 83.2022 261.683 83.2719 261.81 83.3579C261.872 83.3948 261.929 83.4358 261.987 83.4768C262.225 83.6729 262.443 83.8911 262.64 84.1282L262.665 84.1569C262.735 84.2511 262.796 84.3495 262.858 84.4478C262.991 84.6615 263.11 84.8832 263.215 85.1116C263.427 85.6161 263.588 86.1404 263.696 86.6768C263.795 87.1685 263.856 87.9347 263.897 88.41C263.968 89.0026 263.935 89.6031 263.799 90.1842Z" fill="black"/>
</g>
<defs>
<clipPath id="clip0_2456_6813">
<rect width="341" height="341" fill="white"/>
</clipPath>
</defs>
</svg>
