<?xml version="1.0" standalone="no"?>
<!DOCTYPE svg PUBLIC "-//W3C//DTD SVG 20010904//EN"
 "http://www.w3.org/TR/2001/REC-SVG-20010904/DTD/svg10.dtd">
<svg version="1.0" xmlns="http://www.w3.org/2000/svg"
 width="1896.000000pt" height="1389.000000pt" viewBox="0 0 1896.000000 1389.000000"
 preserveAspectRatio="xMidYMid meet">
<metadata>
Created by potrace 1.10, written by Peter Selinger 2001-2011
</metadata>
<g transform="translate(0.000000,1389.000000) scale(0.100000,-0.100000)"
fill="#000000" stroke="none">
<path d="M5220 13675 c-177 -11 -223 -17 -440 -51 -487 -77 -1020 -260 -1455
-499 -38 -21 -83 -47 -100 -57 -16 -10 -39 -22 -50 -27 -11 -5 -37 -21 -58
-35 -21 -14 -40 -26 -42 -26 -8 0 -235 -158 -330 -229 -364 -274 -737 -655
-976 -996 -257 -365 -401 -631 -569 -1044 -39 -97 -116 -330 -145 -441 -9 -36
-23 -87 -30 -115 -8 -27 -22 -86 -31 -130 -8 -44 -22 -109 -29 -145 -12 -61
-28 -170 -56 -385 -6 -49 -14 -229 -16 -400 -6 -319 7 -529 43 -732 8 -45 14
-94 14 -108 0 -15 6 -54 14 -88 8 -34 22 -98 31 -142 10 -44 23 -102 30 -130
29 -111 78 -281 87 -305 5 -14 20 -56 33 -95 13 -38 33 -95 45 -125 12 -30 25
-67 30 -81 4 -14 12 -34 18 -45 5 -10 23 -48 39 -84 101 -230 313 -618 394
-721 16 -20 29 -40 29 -43 0 -8 200 -275 244 -327 17 -20 44 -51 60 -70 125
-149 366 -392 491 -496 28 -23 72 -60 99 -83 99 -84 370 -280 479 -346 27 -16
61 -37 75 -46 15 -10 36 -22 47 -28 11 -5 47 -25 80 -44 147 -85 405 -206 615
-290 64 -25 309 -104 405 -131 28 -8 75 -21 105 -29 30 -8 91 -22 135 -31 44
-9 108 -23 142 -31 34 -8 74 -14 88 -14 15 0 63 -7 108 -15 178 -32 374 -45
673 -45 341 0 597 22 859 74 156 32 232 48 280 62 28 7 77 21 110 30 175 47
408 129 595 209 58 24 324 154 375 183 278 155 560 349 795 546 122 102 401
381 517 516 102 120 278 351 345 455 101 156 124 193 134 215 4 8 19 33 33 55
41 66 167 317 212 422 22 54 45 103 49 108 4 6 10 19 13 30 3 11 15 45 27 75
32 83 48 129 70 195 50 153 70 223 125 445 23 94 64 329 85 490 18 141 31 504
24 688 l-6 172 -1932 0 c-1658 0 -1947 -2 -2046 -15 -297 -39 -558 -150 -790
-338 -116 -94 -288 -276 -273 -291 3 -3 928 -6 2054 -6 1628 0 2048 -3 2052
-12 7 -20 -39 -321 -70 -458 -23 -102 -43 -182 -54 -215 -6 -16 -15 -46 -19
-65 -9 -35 -52 -161 -88 -255 -59 -157 -177 -404 -244 -511 -13 -21 -28 -46
-32 -54 -23 -49 -143 -227 -235 -348 -373 -494 -872 -892 -1446 -1151 -91 -42
-116 -52 -240 -98 -150 -56 -214 -76 -370 -114 -200 -49 -274 -62 -520 -94
-164 -21 -624 -21 -784 0 -218 29 -378 57 -506 90 -144 37 -183 48 -213 61
-18 8 -38 14 -44 14 -19 0 -260 91 -348 132 -143 67 -242 116 -305 153 -33 19
-69 39 -80 45 -11 5 -29 16 -39 22 -11 7 -65 43 -120 79 -268 175 -529 400
-728 628 -46 52 -87 99 -93 105 -45 44 -278 374 -320 451 -6 11 -30 52 -52 90
-207 355 -372 823 -437 1240 -37 241 -46 354 -46 599 0 404 51 745 167 1121
21 67 62 179 89 243 8 18 14 37 14 43 0 10 29 73 112 244 248 514 639 984
1113 1341 83 63 276 192 355 237 51 30 359 183 405 202 17 7 46 19 65 27 34
15 82 34 158 62 38 14 208 67 297 91 28 8 84 21 125 30 41 8 107 22 145 30
339 69 834 79 1210 24 100 -14 214 -37 335 -66 58 -14 121 -29 140 -33 19 -4
91 -26 160 -49 760 -254 1418 -743 1880 -1397 36 -51 78 -114 95 -140 16 -27
50 -83 75 -124 51 -83 183 -348 226 -453 15 -37 32 -72 39 -77 8 -7 40 5 105
38 195 99 337 275 413 511 29 92 31 338 3 421 -31 92 -49 133 -86 194 -19 32
-39 66 -45 75 -19 31 -136 192 -229 312 -142 183 -384 435 -596 620 -198 172
-472 369 -715 511 -152 90 -538 278 -568 278 -7 0 -17 4 -23 8 -14 12 -221 90
-299 112 -16 5 -52 16 -80 24 -48 15 -178 50 -295 80 -87 23 -263 55 -470 86
-111 17 -477 40 -615 38 -66 0 -203 -6 -305 -13z"/>
<path d="M5250 12459 c-188 -17 -472 -69 -620 -114 -30 -9 -71 -20 -90 -24
-30 -6 -171 -55 -235 -81 -182 -74 -296 -128 -478 -229 -73 -40 -201 -123
-205 -133 -2 -5 -8 -8 -14 -8 -12 0 -189 -133 -293 -220 -132 -112 -302 -285
-441 -452 -27 -32 -122 -159 -168 -223 -60 -85 -160 -255 -218 -370 -74 -145
-128 -261 -128 -273 0 -5 -7 -23 -15 -38 -8 -16 -15 -37 -15 -46 0 -9 -4 -19
-9 -23 -5 -3 -19 -38 -31 -78 -12 -39 -32 -103 -45 -142 -13 -38 -33 -115 -44
-170 -12 -55 -26 -113 -31 -130 -5 -16 -12 -55 -15 -85 -4 -30 -11 -71 -15
-90 -16 -65 -42 -503 -36 -591 4 -48 11 -149 16 -225 10 -138 19 -210 45 -334
39 -184 57 -267 65 -285 5 -11 18 -54 30 -95 11 -41 25 -83 31 -92 5 -10 9
-23 9 -30 0 -7 6 -25 14 -39 7 -15 23 -53 34 -85 54 -156 204 -445 322 -619
99 -147 159 -228 260 -350 33 -40 337 -343 375 -375 74 -61 132 -107 155 -123
14 -9 50 -36 80 -58 71 -53 247 -169 268 -177 9 -3 43 -22 77 -42 33 -20 89
-50 125 -67 36 -17 99 -47 141 -67 42 -20 83 -36 91 -36 8 0 18 -3 21 -6 9
-10 102 -46 172 -68 33 -11 93 -30 134 -43 72 -24 250 -65 361 -84 30 -6 75
-14 100 -19 43 -9 215 -24 427 -37 169 -10 633 30 763 66 19 6 71 17 115 26
129 27 464 134 490 157 5 4 16 8 23 8 21 0 191 80 322 152 176 97 245 140 359
223 53 39 107 78 121 87 33 21 140 115 274 241 102 95 322 340 363 404 10 15
24 34 31 42 14 15 162 238 162 245 0 2 15 26 33 53 69 103 197 380 267 578 18
50 36 99 40 110 5 11 18 54 29 95 12 41 26 91 31 110 14 48 40 181 40 203 0
16 -100 17 -1969 17 -1563 0 -1971 -3 -1979 -13 -16 -19 -81 -197 -92 -253
-19 -95 -28 -150 -41 -252 -11 -89 -10 -105 2 -113 8 -5 604 -9 1422 -9 1142
0 1407 -2 1407 -13 0 -7 -28 -54 -62 -104 -223 -325 -511 -595 -828 -776 -64
-36 -242 -123 -271 -132 -13 -4 -28 -11 -34 -15 -11 -8 -144 -55 -215 -75
-140 -40 -173 -48 -250 -62 -266 -45 -508 -55 -730 -28 -178 21 -352 53 -405
75 -11 4 -64 22 -118 39 -54 17 -118 40 -142 51 -24 11 -47 20 -50 20 -8 0
-143 67 -220 109 -134 74 -226 135 -359 241 -111 88 -272 249 -390 390 -44 54
-176 252 -219 330 -46 85 -117 227 -117 237 0 4 -6 20 -14 35 -38 73 -113 321
-138 457 -68 367 -62 690 17 1056 17 79 100 340 114 360 4 6 16 32 26 59 21
57 91 194 143 281 169 281 351 485 645 722 35 27 141 98 220 146 71 43 318
167 333 167 3 0 20 6 37 14 64 29 301 101 412 124 256 55 741 54 985 -3 462
-108 811 -281 1135 -565 51 -44 211 -204 251 -251 45 -51 176 -227 203 -271
l23 -38 528 0 c341 0 531 4 535 10 3 5 -1 22 -9 37 -8 16 -38 78 -66 138 -92
196 -231 424 -363 596 -112 147 -352 398 -512 536 -132 114 -378 286 -520 365
-63 34 -269 137 -320 158 -11 5 -40 18 -65 28 -25 11 -85 34 -135 52 -49 17
-98 36 -108 41 -10 6 -37 14 -60 19 -23 5 -67 16 -97 25 -147 44 -397 90 -625
115 -97 11 -467 10 -585 -1z"/>
<path d="M13402 9438 c-16 -16 -15 -33 4 -52 19 -20 54 -5 54 22 0 20 -18 42
-35 42 -6 0 -16 -5 -23 -12z"/>
</g>
</svg>
