<svg width="29" height="29" viewBox="0 0 29 29" fill="none" xmlns="http://www.w3.org/2000/svg">
<path d="M13.05 23.2H15.95V20.3H13.05V23.2ZM14.5 0C6.496 0 0 6.496 0 14.5C0 22.504 6.496 29 14.5 29C22.504 29 29 22.504 29 14.5C29 6.496 22.504 0 14.5 0ZM14.5 26.1C8.1055 26.1 2.9 20.8945 2.9 14.5C2.9 8.1055 8.1055 2.9 14.5 2.9C20.8945 2.9 26.1 8.1055 26.1 14.5C26.1 20.8945 20.8945 26.1 14.5 26.1ZM14.5 5.8C11.2955 5.8 8.7 8.3955 8.7 11.6H11.6C11.6 10.005 12.905 8.7 14.5 8.7C16.095 8.7 17.4 10.005 17.4 11.6C17.4 14.5 13.05 14.1375 13.05 18.85H15.95C15.95 15.5875 20.3 15.225 20.3 11.6C20.3 8.3955 17.7045 5.8 14.5 5.8Z" fill="#5624D0"/>
</svg>
