<svg width="39" height="29" viewBox="0 0 39 29" fill="none" xmlns="http://www.w3.org/2000/svg">
<path d="M26.5909 10.875C29.5336 10.875 31.8914 8.44625 31.8914 5.4375C31.8914 2.42875 29.5336 0 26.5909 0C23.6482 0 21.2727 2.42875 21.2727 5.4375C21.2727 8.44625 23.6482 10.875 26.5909 10.875ZM12.4091 10.875C15.3518 10.875 17.7095 8.44625 17.7095 5.4375C17.7095 2.42875 15.3518 0 12.4091 0C9.46636 0 7.09091 2.42875 7.09091 5.4375C7.09091 8.44625 9.46636 10.875 12.4091 10.875ZM12.4091 14.5C8.27864 14.5 0 16.6206 0 20.8438V29H12.4091H24.8182V20.8438C24.8182 16.6206 16.5395 14.5 12.4091 14.5ZM26.5909 14.5C26.0768 14.5 25.4918 14.5363 24.8714 14.5906C26.9277 16.1131 28.3636 18.1612 28.3636 20.8438V29H39V20.8438C39 16.6206 30.7214 14.5 26.5909 14.5Z" fill="#5624D0"/>
</svg>
